<svg xmlns="http://www.w3.org/2000/svg" width="229" height="320" style="shape-rendering:geometricPrecision;text-rendering:geometricPrecision;image-rendering:optimizeQuality;fill-rule:evenodd;clip-rule:evenodd"><path style="opacity:.188" fill="#f0edd1" d="M19.5-.5h14v2c-.7 0-1 .3-1 1a23.2 23.2 0 0 0-25 10 17.4 17.4 0 0 0-6 12 8.8 8.8 0 0 0 0 8c-.5 1-1.1 1-2 0v-15c2.4-3.7 5-7.4 8-11 3.9-3 7.9-5.3 12-7Z"/><path style="opacity:.212" fill="#ece8cc" d="M32.5 2.5c0-.7.3-1 1-1 1.5-.3 2.8 0 4 1 8.5 7 13.5 16 15 27a29 29 0 0 1-3 10c2.7 3.3 4.7 7 6 11 2 3 4.6 4.6 8 5 .7 5 2.7 9.4 6 13-1.3-.2-2.3.1-3 1a30.9 30.9 0 0 0-13.5-17 13 13 0 0 0-1.5-5c.2-1-.2-1.7-1-2a18 18 0 0 0-4-6c4.1-9 3.5-17.6-2-26l-1-2c-2.4-3-5.4-5.4-9-7a3 3 0 0 0-2-2Z"/><path style="opacity:.988" fill="#363121" d="M32.5 2.5a3 3 0 0 1 2 2c-.7 0-1 .3-1 1h-1c-.4-.7-1-1.2-2-1.5-3-.7-6-.7-9 0a52.6 52.6 0 0 0-14 9.5v-1c6.1-8.6 14.5-12 25-10Z"/><path style="opacity:1" fill="#e3cfbf" d="M32.5 5.5h-2a14 14 0 0 0-14 4c-5 2.9-8.8 6.9-11.5 12-.5-.6-.6-1.3-.5-2l3-6c4.1-3.9 8.8-7 14-9.5 3-.7 6-.7 9 0 1 .3 1.6.8 2 1.5Z"/><path style="opacity:1" fill="#512e2a" d="M30.5 5.5h3c2.4 1.4 3.8 3 4 5-1-1-2-1-3 0l-2 6c0 .7-.3 1-1 1-1-3.9-1.3-7.9-1-12Z"/><path style="opacity:1" fill="#914c45" d="M30.5 5.5c-.3 4.1 0 8.1 1 12 1.1.7 2.5.8 4 .5-.8.7-1 1.5-1 2.5-1.5-.8-2.8-.8-4 0a3 3 0 0 0 3 1c0 2.5-1 4.5-3 6-.8-.3-1.5-.8-2-1.5a80 80 0 0 0 0-16.5l-9 2c-.7 1.2-1 2.6-1 4-.7-1-1.7-1.7-3-2l1-4c4-4 8.6-5.3 14-4Z"/><path style="opacity:1" fill="#561826" d="M37.5 10.5v5c-1.6.5-3.3.9-5 1l2-6c1-1 2-1 3 0Z"/><path style="opacity:1" fill="#944944" d="M15.5 13.5c.2 1.4.7 2.8 1.5 4 1.7-.8 1.8-.3.5 1.5a5 5 0 0 1 4 3.5 22.6 22.6 0 0 0-3.5 5c.2-1.6.2-3.3 0-5-1-.8-2.2-1.2-3.5-1-.5 2.2-1.5 4.2-3 6l5 2c-2.3 2.4-2.6 5.1-1 8a22.2 22.2 0 0 0-6-3 39.2 39.2 0 0 1-2.5-13c2-3.8 4.8-6.4 8.5-8Z"/><path style="opacity:1" fill="#91453e" d="M15.5 13.5c1.3.3 2.3 1 3 2 2.7 0 5.4-.4 8-1 .4 2.6-.3 4.7-2 6.5 1 2.4 1.3 4.9 1 7.5a6.2 6.2 0 0 0 4 5.5l-6 4.5a25 25 0 0 0-8-1c-1.6-2.9-1.3-5.6 1-8l-5-2c1.5-1.8 2.5-3.8 3-6 1.3-.2 2.5.2 3.5 1 .2 1.7.2 3.4 0 5 1-1.8 2-3.5 3.5-5a5 5 0 0 0-4-3.5c1.3-1.8 1.2-2.3-.5-1.5-.8-1.2-1.3-2.6-1.5-4Z"/><path style="opacity:1" fill="#2b1715" d="M33.5 5.5c0-.7.3-1 1-1 3.6 1.6 6.6 4 9 7h-3c.8 8 1.4 16 2 24l-11 .5c2.7-2 5.7-2.7 9-2.5.3-2.6 0-4.9-1-7-.5-3.7-1.2-7.4-2-11v-5c-.2-2-1.6-3.6-4-5Z"/><path style="opacity:1" fill="#93413d" d="M34.5 20.5h3v10c-2.5-.4-4.7.3-6.5 2-1.6-1.3-2.8-3-3.5-5l-2 1c.3-2.6 0-5.1-1-7.5 1.8-1.8 2.4-4 2-6.5-2.6.6-5.3 1-8 1 0-1.4.3-2.8 1-4l9-2a80 80 0 0 1 0 16.5c.5.7 1.2 1.2 2 1.5 2-1.5 3-3.5 3-6a3 3 0 0 1-3-1c1.2-.8 2.5-.8 4 0Z"/><path style="opacity:.19" fill="#e6e2c8" d="M228.5 45.5v3l-2 19c-5.6 4-11.2 7.6-17 11-1 .2-1.7-.2-2-1 2.8-3 6-5.4 10-7a7 7 0 0 0 3-2 9.6 9.6 0 0 0 5-10c1.1-4.5 1.3-9.1.5-14a5 5 0 0 0-2.5-4c-1.4-3.7-4-6-8-7a18.4 18.4 0 0 0-11-4 8.4 8.4 0 0 0-9 1.5A61.2 61.2 0 0 0 177 49.5c-.1 4-1 7.6-2.5 11-1-.1-2 0-3 .5a63.7 63.7 0 0 1-7 6.5v-4c2.2-2.5 5-4.5 8-6 2.1-6.2 4.8-12.2 8-18 13.4-14.7 28-16 44-4l4 10Z"/><path style="opacity:1" fill="#7c5149" d="m16.5 9.5-1 4a16.5 16.5 0 0 0-8.5 8c0 4.5 1 8.8 2.5 13a4 4 0 0 1-3.5-2 17 17 0 0 1-1.5-13c-.1.7 0 1.4.5 2 2.7-5.1 6.5-9.1 11.5-12Z"/><path style="opacity:1" fill="#6b3c44" d="m43.5 11.5 1 2c-.6.4-1 1-1 2 1.9 3.8 3.2 7.8 4 12-.7 3-1 6-1 9h-4v-1c-.6-8-1.2-16-2-24h3Z"/><path style="opacity:1" fill="#8d4744" d="M37.5 15.5c.8 3.6 1.5 7.3 2 11 .7 5.3-1.6 7.4-7 6.5-1.7 3.8-4.7 5.6-9 5.5l6-4.5a6.2 6.2 0 0 1-4-5.5l2-1c.7 2 1.9 3.7 3.5 5 1.8-1.7 4-2.4 6.5-2v-10h-3c0-1 .2-1.8 1-2.5-1.5.3-2.9.2-4-.5.7 0 1-.3 1-1 1.7-.1 3.4-.5 5-1Z"/><path style="opacity:1" fill="#5e5143" d="M204.5 29.5c4.2.2 7.9 1.5 11 4-1-.2-1.7.2-2 1a35.4 35.4 0 0 0-15-2 40 40 0 0 1 9-1.5 5.5 5.5 0 0 1-3-1.5Z"/><path style="opacity:.965" fill="#1d1813" d="M7.5 12.5v1l-3 6a17 17 0 0 0 1.5 13 4 4 0 0 0 3.5 2c2.8 3.4 6.2 6.4 10 9 1.1 3 2.5 5.8 4 8.5 1 .6 1.8.5 2.5-.5a3.3 3.3 0 0 0 3.5 2c-.4.7-1 1.2-2 1.5 1.3 1.6 1.3 3.1 0 4.5-3.1-4.6-7-8.6-11.5-12-.2-1.4-.7-2.8-1.5-4-8.7-3.4-13-9.7-13-19 .4-4.8 2.4-8.8 6-12Z"/><path style="opacity:1" fill="#c37269" d="M214.5 35.5c2.3.6 4 2 5 4 .1.7 0 1.4-.5 2a6.9 6.9 0 0 0-4.5-3l-1-2c.7 0 1-.3 1-1Z"/><path style="opacity:1" fill="#9c413e" d="M195.5 36.5c3.4 1.4 7 2 11 2 .3 1.5 0 2.8-1 4-.9-1-1.6-1-2 0 2.7 3.4 5.7 6.4 9 9-.8 1-1.8 1.2-3 .5l-6.5-6.5c-.4.2-.6.6-.5 1a11.3 11.3 0 0 0-7-4c0-.7-.3-1-1-1a7 7 0 0 1 2-2.5c-1.9-.6-2.2-1.4-1-2.5Z"/><path style="opacity:1" fill="#8e3836" d="M211.5 36.5c-3.7 0-4 .6-.5 2 .5 1 .6 2 .5 3-.2 1.2-.5 2.4-1 3.5a9 9 0 0 1 2 6.5 57.5 57.5 0 0 1-9-9c.4-1 1.1-1 2 0 1-1.2 1.3-2.5 1-4-4 0-7.6-.6-11-2 .1-.6.4-1.1 1-1.5 4.7-.7 9.3-.7 14 0 .6.4.9.9 1 1.5Z"/><path style="opacity:1" fill="#6d4540" d="M39.5 26.5c1 2.1 1.3 4.4 1 7-3.3-.2-6.3.6-9 2.5l11-.5v1c-6.4.3-12 2.5-17 6.5l1 .5c2.7-2 5.7-3.5 9-4.5 1.6-.8 2.9-.6 4 .5-3.5 2-7.2 3.8-11 5.5-4.3 2.7-4 4.6 1 5.5 5.2-1 9.9-3 14-6 2.2 0 4.2.8 6 2 .6-.1 1-.5 1-1 .8.3 1.2 1 1 2-.9.6-1.9 1-3 1-7.2-1-12.8 1.7-17 8 .2-1.7-.5-2.7-2-3-1.6.1-2.8-.5-3.5-2-.7 1-1.6 1.1-2.5.5a61.7 61.7 0 0 1-4-8.5 45.6 45.6 0 0 1-10-9c2.2.7 4.2 1.7 6 3a25 25 0 0 1 8 1c4.3 0 7.3-1.7 9-5.5 5.4 1 7.7-1.2 7-6.5Z"/><path style="opacity:.992" fill="#25221e" d="M204.5 29.5c.8.8 1.8 1.3 3 1.5a40 40 0 0 0-9 1.5 32.3 32.3 0 0 0-11 8 29.2 29.2 0 0 0-9 18c0 1.2.4 2.2 1 3 .1 3.4-.5 3.8-2 1h-3c-1-.4-1-1.1 0-2a28 28 0 0 0 2.5-11c4.8-7.5 11-13.7 18.5-18.5a8.4 8.4 0 0 1 9-1.5Z"/><path style="opacity:1" fill="#c99888" d="M198.5 32.5c5.2-.4 10.2.3 15 2 .7 0 1 .3 1 1s-.3 1-1 1h-2c-.1-.6-.4-1.1-1-1.5-4.7-.7-9.3-.7-14 0-.6.4-.9.9-1 1.5-1.2 1-.9 1.9 1 2.5a7 7 0 0 0-2 2.5 29 29 0 0 0-11 11c1.2-4 3.2-7.7 6-11-.5-.8-1.1-1.1-2-1 3.1-3.5 6.8-6.1 11-8Z"/><path style="opacity:.922" fill="#2f1e19" d="M44.5 13.5c5.5 8.4 6.1 17 2 26a18 18 0 0 1 4 6c0 .5-.4.9-1 1-1.8-1.2-3.8-2-6-2-.4-.7-1-1.2-2-1.5l2-1c-2-.1-3.3-1-4-2.5-1.1-1.1-2.4-1.3-4-.5-3.3 1-6.3 2.5-9 4.5l-1-.5c5-4 10.6-6.2 17-6.5h4c0-3 .3-6 1-9-.8-4.2-2.1-8.2-4-12 0-1 .4-1.6 1-2Z"/><path style="opacity:1" fill="#dcceba" d="M187.5 40.5c.9-.1 1.5.2 2 1-2.8 3.3-4.8 7-6 11-1.7 2.3-2.4 5-2 8-.7 0-1 .3-1 1h-1c-.6-.8-1-1.8-1-3 .9-7.1 3.9-13.1 9-18Z"/><path style="opacity:1" fill="#82433e" d="M39.5 39.5c.7 1.5 2 2.4 4 2.5l-2 1c1 .3 1.6.8 2 1.5-4.1 3-8.8 5-14 6-5-1-5.3-2.8-1-5.5 3.8-1.7 7.5-3.5 11-5.5Z"/><path style="opacity:1" fill="#582726" d="M194.5 41.5c.7 0 1 .3 1 1a67.3 67.3 0 0 0-11 12c-.8-.5-1.1-1.1-1-2a29 29 0 0 1 11-11Z"/><path style="opacity:.106" fill="#dbd7c3" d="M1.5 24.5c0 9.3 4.3 15.6 13 19 .8 1.2 1.3 2.6 1.5 4 4.5 3.4 8.4 7.4 11.5 12v1a46 46 0 0 1-16-16 81.6 81.6 0 0 1-12-9v-3c.9 1 1.5 1 2 0a8.8 8.8 0 0 1 0-8Z"/><path style="opacity:1" fill="#7f3334" d="M214.5 38.5c1.9.4 3.4 1.4 4.5 3 .5-.6.6-1.3.5-2a7 7 0 0 1 3 4c-.3 3.5-2.3 5.2-6 5-.3-2.3 0-4.5 1-6.5a5.2 5.2 0 0 1-3-3.5Z"/><path style="opacity:1" fill="#9f524b" d="M195.5 42.5c2.8.5 5.1 1.8 7 4 .7 1.8 1.7 3.5 3 5-.5 1-1.1 1-2 0-2-2.5-4.1-4.8-6.5-7a73 73 0 0 0-5.5 14c-1.3-.2-2.5.2-3.5 1-.3-.8-.8-1.5-1.5-2l-2 4c-1-.6-2-1-3-1-.4-3 .3-5.7 2-8-.1.9.2 1.5 1 2 3.2-4.5 6.9-8.5 11-12Z"/><path style="opacity:.886" fill="#837b6d" d="M223.5 40.5a5 5 0 0 1 2.5 4c.8 4.9.6 9.5-.5 14 .4-6.2-.3-12.2-2-18Z"/><path style="opacity:.09" fill="#d7d1b0" d="m121.5 43.5 3 2c-3.2-.9-6.2-.9-9 0h-3a25 25 0 0 0-13.5 5c-1.4 10-2.2 20-2.5 30-1.6.7-3.3.9-5 .5a61.4 61.4 0 0 1-5-5.5l-1 .5c1.3.8 2 2 2 3.5-1.3-.3-2.3-1-3-2 .2-1.3-.2-2.5-1-3.5l-13-1a7 7 0 0 1-4-3.5c.7-.9 1.7-1.2 3-1 9.1 1 17.3 4.3 24.5 10 .4-1 .9-1.7 1.5-2.5a76 76 0 0 1 2-28.5c5-2 10.2-3.8 15.5-5 3-.1 5.9.2 8.5 1Z"/><path style="opacity:1" fill="#121c16" d="M124.5 45.5c6 2.8 8.1 7.5 6.5 14l-3.5 10a11 11 0 0 1 0-9c0-2.7.6-5.2 2-7.5a18.8 18.8 0 0 0-14-7.5c2.8-.9 5.8-.9 9 0Z"/><path style="opacity:1" fill="#62272a" d="M211.5 36.5h2l1 2a5.2 5.2 0 0 0 3 3.5c-1 2-1.3 4.2-1 6.5 3.7.2 5.7-1.5 6-5a6.6 6.6 0 0 1 .5 6c-2.8 1.4-5 3.4-6.5 6a461 461 0 0 1-5-14c.1-1 0-2-.5-3-3.4-1.4-3.2-2 .5-2Z"/><path style="opacity:1" fill="#071c22" d="M112.5 45.5h3c5.7.4 10.3 2.9 14 7.5a14 14 0 0 0-2 7.5 5 5 0 0 0-6 0c-1.3-1.9-1.3-3.9 0-6a3 3 0 0 0-3-1c0-2-1-3.4-3-4-2.3 2.2-4.8 2.5-7.5 1l-7 8c-1.1-7.3 2.2-11 10-11 1-.3 1.5-1 1.5-2Z"/><path style="opacity:1" fill="#071a1d" d="M112.5 45.5c0 1-.5 1.7-1.5 2-7.8 0-11.1 3.7-10 11l7-8c2.7 1.5 5.2 1.2 7.5-1 2 .6 3 2 3 4a3 3 0 0 1 3 1c-1.3 2.1-1.3 4.1 0 6v2c-1.6 0-3-.6-4-2l-1 1c1.6 1.4 2.5 3 2.5 5l-2-2a168 168 0 0 0-4.5 5c-3.7.8-6.4 3-8 6.5.4 1 1 1.5 2 1.5a4.5 4.5 0 0 1-5.5 0l-.5 1a32 32 0 0 1 4 2.5c-2.4 1-4.7 1.5-7 1.5-.8-.3-1.2-1-1-2 .3-10 1.1-20 2.5-30a25 25 0 0 1 13.5-5Z"/><path style="opacity:1" fill="#7a3b38" d="M211.5 41.5a461 461 0 0 0 5 14 3 3 0 0 1-2 2 21 21 0 0 0-17.5 6 14 14 0 0 0-3.5-1c-.1-.6-.4-1.1-1-1.5 3.6-3.4 7.2-6.6 11-9.5.9 1 1.5 1 2 0a19.2 19.2 0 0 1-3-5c0-.4.1-.8.5-1l6.5 6.5c1.2.7 2.2.6 3-.5a9 9 0 0 0-2-6.5c.5-1.1.8-2.3 1-3.5Z"/><path style="opacity:.984" fill="#423535" d="M29.5 53.5c1.5.3 2.2 1.3 2 3-.9-1-1.5-1-2 0l4 5c-1.1 0-2.1.4-3 1a7 7 0 0 1-3-2v-1c1.3-1.4 1.3-2.9 0-4.5 1-.3 1.6-.8 2-1.5Z"/><path style="opacity:1" fill="#873f3d" d="M203.5 51.5c-3.8 3-7.4 6.1-11 9.5.6.4.9.9 1 1.5a28 28 0 0 0 5 5h-3c-1.6-1-3.2-1.6-5-2l-3-2.5c-2.5-.2-4.9-.7-7-1.5 0-.7.3-1 1-1 1 0 2 .4 3 1l2-4c.7.5 1.2 1.2 1.5 2 1-.8 2.2-1.2 3.5-1 1.1-4.3 3-9 5.5-14 2.4 2.2 4.5 4.5 6.5 7Z"/><path style="opacity:1" fill="#321c20" d="M213.5 34.5c.3-.8 1-1.2 2-1 4 1 6.6 3.3 8 7a51.2 51.2 0 0 1 2 18c-.7-.4-1.2-1-1.5-2-2.7 2-6 3-9.5 3h-1l1-2a3 3 0 0 0 2-2c1.6-2.6 3.7-4.6 6.5-6 .8-2.2.6-4.2-.5-6a7 7 0 0 0-3-4c-1-2-2.7-3.4-5-4 0-.7-.3-1-1-1Z"/><path style="opacity:1" fill="#101f22" d="M127.5 60.5a11 11 0 0 0 0 9c-.8 3-1.8 6-3 9a7 7 0 0 0-2 3c-.6-.4-1-1-1-2 1.2-3 2.2-6 3-9-.1-.6-.5-1-1-1h-2c-.8-1.8-.2-3.3 2-4.5-.6-1-1.2-1.8-2-2.5v-2a5 5 0 0 1 6 0Z"/><path style="opacity:.031" fill="#e2e2c9" d="M121.5 43.5c3.4.3 6.8 1 10 2 .7 3 1.7 6 3 9l-7 22c-.7 1-1.7 1.7-3 2a258.7 258.7 0 0 1 6.5-19c1.6-6.5-.5-11.2-6.5-14l-3-2Z"/><path style="opacity:1" fill="#1c1b1c" d="M225.5 58.5a9.6 9.6 0 0 1-5 10l-6-3c-1-2-1-4 0-6 3.6 0 6.8-1 9.5-3 .3 1 .8 1.6 1.5 2Z"/><path style="opacity:1" fill="#b19d7c" d="M40.5 52.5c4.6-.7 8.6.3 12 3v3c-1 1.4-1.3 3-1 5h3v5c-3.8-.5-6.4.8-8 4h-1c-1 .1-2 0-3-.5 1-1.7 1.2-3.6.5-5.5a13 13 0 0 1-2.5-14Z"/><path style="opacity:1" fill="#4a2d28" d="m214.5 57.5-1 2c-2 3.4-5 4.9-9 4.5-1 1.6-2.4 2.7-4 3.5h-2a28 28 0 0 1-5-5c1.2.2 2.4.5 3.5 1a21 21 0 0 1 17.5-6Z"/><path style="opacity:1" fill="#aa9979" d="M52.5 58.5c2.4.4 4.2 1.8 5.5 4 1.2 4 3 7.7 5.5 11-1.7 3-.7 4.4 3 4a29.7 29.7 0 0 0-4.5 18c-.6 2.2-1.4 4.2-2.5 6-3.8-7.3-6.8-15-9-23 2.5.2 4.8-.3 7-1.5 1-.7 1.1-1.6.5-2.5-2.9 1.7-6 2.4-9.5 2a7 7 0 0 1-1-4 21 21 0 0 1 4.5-3c2.4 1.5 5 2.3 7.5 2.5-1.3-1.7-3-2.8-5-3.5v-5h-3c-.3-2 0-3.6 1-5Z"/><path style="opacity:1" fill="#c8b9a0" d="M52.5 55.5a23.4 23.4 0 0 1 12.5 16c1.5.7 2.7 1.7 3.5 3-1.7-.1-3.4-.5-5-1-2.5-3.3-4.3-7-5.5-11a7.6 7.6 0 0 0-5.5-4v-3Z"/><path style="opacity:.992" fill="#302b23" d="M51.5 47.5a13 13 0 0 1 1.5 5 30.9 30.9 0 0 1 13.5 17 7 7 0 0 0 4 3.5l13 1c.8 1 1.2 2.2 1 3.5a8.7 8.7 0 0 0-7-2c-3-.5-6-.8-9-1-.8-1.3-2-2.3-3.5-3-1.7-7.2-6-12.6-12.5-16a14.6 14.6 0 0 0-12-3c2.8-1.1 5.4-2.5 8-4 1.1 0 2.1-.4 3-1Z"/><path style="opacity:1" fill="#bcb4a8" d="M174.5 62.5h3v2a7 7 0 0 0-7 3h-3a9 9 0 0 1 7-5Z"/><path style="opacity:1" fill="#877664" d="M40.5 52.5a13 13 0 0 0 2.5 14c.7 2 .6 3.8-.5 5.5 1 .5 2 .6 3 .5-1.1 1.1-2.4 1.3-4 .5A19.5 19.5 0 0 1 36 56.5a5.5 5.5 0 0 1 4.5-4Z"/><path style="opacity:1" fill="#252526" d="M213.5 59.5h1c-1 2-1 4 0 6l6 3a7 7 0 0 1-3 2c.1-.9-.2-1.5-1-2-2.4 1.8-5 2.8-8 3a66.3 66.3 0 0 1-8-4c1.6-.8 3-2 4-3.5 4 .4 7-1.1 9-4.5Z"/><path style="opacity:1" fill="#542e2e" d="M179.5 61.5h1c2.1.8 4.5 1.3 7 1.5l3 2.5c-.7-.1-1.4 0-2 .5a4.6 4.6 0 0 1 2 4.5c-3-.5-5.9-1.5-8.5-3-.8 0-1.3.4-1.5 1a10.7 10.7 0 0 0-6-2.5c1.2-.2 2.2-.7 3-1.5v-2c1.5 2.8 2.1 2.4 2-1Z"/><path style="opacity:1" fill="#776445" d="M54.5 68.5c2 .7 3.7 1.8 5 3.5-2.6-.2-5-1-7.5-2.5a21 21 0 0 0-4.5 3h-1c1.6-3.2 4.2-4.5 8-4Z"/><path style="opacity:1" fill="#eee6d2" d="M167.5 67.5h3a17.3 17.3 0 0 0-4 6l-2.5 3c-.5-.6-.6-1.3-.5-2 1-2.5 2.4-4.8 4-7Z"/><path style="opacity:1" fill="#7b5b5a" d="M195.5 67.5h5c2.6 1.5 5.3 2.9 8 4-4.8 0-9.2-1.3-13-4Z"/><path style="opacity:1" fill="#041b1f" d="m112.5 69.5-4 5c.4 6.1 3 7.8 8 5 1 1.4 1.3 3 1 5a24.6 24.6 0 0 0-7 5c-2-.7-4-1-6-1h-1c.1-.6.4-1.1 1-1.5-2-.5-4-.7-6-.5a7 7 0 0 0-1-4c2.3 0 4.6-.5 7-1.5a32 32 0 0 0-4-2.5l.5-1a4.5 4.5 0 0 0 5.5 0c-1 0-1.6-.5-2-1.5 1.6-3.5 4.3-5.7 8-6.5Z"/><path style="opacity:.259" fill="#e4ddc4" d="M33.5 61.5c2.5 7 6.5 13 12 18 .8 1.3 2 2.3 3.5 3 1 5.5 2.2 10.8 4 16 1.7 3.2 4.2 5.6 7.5 7v1c.2 1.3-.1 2.3-1 3a20.8 20.8 0 0 1-9-12 11.2 11.2 0 0 1-1-8.5c-3.5-4-7.2-7.8-11-11.5a159 159 0 0 0-8-15c.9-.6 1.9-1 3-1Z"/><path style="opacity:.98" fill="#1d1817" d="M48.5 48.5a63.3 63.3 0 0 1-8 4 5.5 5.5 0 0 0-4.5 4c-.8 6.3 1 11.8 5.5 16.5 1.6.8 2.9.6 4-.5h2a7 7 0 0 0 1 4c.1 1 0 2-.5 3-.8-1.1-1.6-1.1-2.5 0-5.5-5-9.5-11-12-18a1043 1043 0 0 0-4-5c.5-1 1.1-1 2 0 4.2-6.3 9.8-9 17-8Z"/><path style="opacity:1" fill="#495753" d="M123.5 69.5c.5 0 .9.4 1 1-.8 3-1.8 6-3 9 0 1 .4 1.6 1 2-.3.8-1 1.2-2 1-.6-3-.8-6-.5-9a7 7 0 0 1 3.5-4Z"/><path style="opacity:1" fill="#b08173" d="M177.5 64.5c-.8.8-1.8 1.3-3 1.5 2.3.2 4.3 1 6 2.5.5 1.4 1.5 2 3 2-1.3 2.1-3 2-5-.5-1.4-.8-2.8-.6-4 .5 1.9 1.1 3.6 2.4 5 4a3 3 0 0 1-3 1 9.7 9.7 0 0 0-7-.5c.6.4.9.9 1 1.5-2.1 0-3.5-1-4-3 .9-2.2 2.2-4.2 4-6a7 7 0 0 1 7-3Z"/><path style="opacity:1" fill="#71463e" d="M183.5 70.5c3.1 2 6 4.3 8.5 7 .7.7.7 1.3 0 2-1 .6-1.8 1.2-2.5 2a37 37 0 0 0-7 4 112 112 0 0 0-2-5c-.7 0-1-.3-1-1-.6-1.6-1.6-3-3-4a3 3 0 0 0 3-1 21.6 21.6 0 0 0-5-4c1.2-1.1 2.6-1.3 4-.5 2 2.5 3.7 2.6 5 .5Z"/><path style="opacity:1" fill="#c4b587" d="M63.5 73.5c1.6.5 3.3.9 5 1 3 .2 6 .5 9 1 1.1.8 2.4 1.3 4 1.5l-15 .5c-3.7.4-4.7-1-3-4Z"/><path style="opacity:1" fill="#41302f" d="M190.5 70.5h1a15 15 0 0 1 7 6c-2.6.8-4.6 2.3-6 4.5a5 5 0 0 1-3 .5c.7-.8 1.5-1.4 2.5-2 .7-.7.7-1.3 0-2-2.5-2.7-5.4-5-8.5-7-1.5 0-2.5-.6-3-2 .2-.6.7-1 1.5-1 2.6 1.5 5.5 2.5 8.5 3Z"/><path style="opacity:1" fill="#021a1f" d="M121.5 62.5c.8.7 1.4 1.5 2 2.5-2.2 1.2-2.8 2.7-2 4.5-1.3-.2-2.5.2-3.5 1l-1 6-2-2c.1 1.7.6 3.4 1.5 5-5 2.8-7.6 1.1-8-5l4-5 4.5-5 2 2c0-2-.9-3.6-2.5-5l1-1c1 1.4 2.4 2 4 2Z"/><path style="opacity:.969" fill="#131416" d="M190.5 65.5c1.8.4 3.4 1 5 2 3.8 2.7 8.2 4 13 4 3-.2 5.6-1.2 8-3 .8.5 1.1 1.1 1 2-4 1.6-7.2 4-10 7l-6 3a4 4 0 0 1 2-3.5c-3.2-.6-3.5-1.6-1-3a57 57 0 0 0-10.5-6.5 5 5 0 0 0-.5 3h-1c.2-1.9-.5-3.4-2-4.5.6-.5 1.3-.6 2-.5Z"/><path style="opacity:1" fill="#232725" d="M201.5 80.5c-5.5 3.2-11.1 6.2-17 9 0-1-.5-1.7-1.5-2-1.6.5-3 1.2-4.5 2l-1-1c2.1-2.2 3.1-5 3-8a112 112 0 0 1 2 5 37 37 0 0 1 7-4c1 .1 2 0 3-.5 1.4-2.2 3.4-3.7 6-4.5a15 15 0 0 0-7-6c-.1-1 0-2 .5-3a57 57 0 0 1 10.5 6.5c-2.5 1.4-2.2 2.4 1 3a4 4 0 0 0-2 3.5Z"/><path style="opacity:1" fill="#4b3c34" d="M176.5 75.5c1.4 1 2.4 2.4 3 4h-2c-.7-.9-1.7-1.2-3-1v4c-1.7-.1-3.4-.5-5-1-.5 0-.9-.4-1-1l4-2c-.1-.6-.5-1-1-1 0-.7-.3-1-1-1-.1-.6-.4-1.1-1-1.5 2.4-.7 4.8-.5 7 .5Z"/><path style="opacity:1" fill="#a19270" d="M77.5 75.5c2.7-.3 5 .3 7 2 .7 1 1.7 1.7 3 2a7 7 0 0 1 2 3c-4.4-.1-8.7.2-13 1l-8 1c-.7-.9-1.7-1.2-3-1a6 6 0 0 1 2-5c-.1-.6-.5-1-1-1l15-.5a8.8 8.8 0 0 1-4-1.5Z"/><path style="opacity:.157" fill="#e3e3c1" d="M127.5 76.5c0 1.6-.6 3-2 4 3.6 1 7.3 1.3 11 1 .8.8 1.8 1.3 3 1.5a5 5 0 0 1-3 .5c-8-1.1-14.7 1.4-20 7.5-1 .7-1.6.5-2-.5l6-8c1 .2 1.7-.2 2-1a7 7 0 0 1 2-3c1.3-.3 2.3-1 3-2Z"/><path style="opacity:.031" fill="#efedce" d="M164.5 63.5v4c-.7 2.8-2 5.3-4 7.5a30.3 30.3 0 0 0-17 9c-2.5.8-4.9.6-7-.5 1 .1 2 0 3-.5a5.5 5.5 0 0 1-3-1.5c7.4-2.1 14.7-4.6 22-7.5l6-10.5Z"/><path style="opacity:1" fill="#b1a581" d="M166.5 73.5c.5 2 1.9 3 4 3 .7 0 1 .3 1 1l-5 2c1.1 1 1.1 1.8 0 2.5-3.8 1.6-7.6 3.1-11.5 4.5-2.5-.1-5.3-.5-8.5-1 5-1.2 10-2.7 15-4.5.5-.4.8-1 1-1.5a4.9 4.9 0 0 0-4-1c1-1 2.4-1.3 4-1-.2-1.3.1-2.3 1-3-.1.7 0 1.4.5 2l2.5-3Z"/><path style="opacity:1" fill="#998865" d="M171.5 77.5c.5 0 .9.4 1 1l-4 2c.1.6.5 1 1 1 0 1-.2 1.8-1 2.5l-10 4a19 19 0 0 1-12-1.5v-1c3.2.5 6 .9 8.5 1 3.9-1.4 7.7-2.9 11.5-4.5 1.1-.7 1.1-1.6 0-2.5l5-2Z"/><path style="opacity:.031" fill="#c8bea4" d="M207.5 77.5c.3.8 1 1.2 2 1-5.3 3-10.4 6.4-15.5 10-.4-.5-1-.8-1.5-1a32.7 32.7 0 0 1-12 6c-.7-.9-1.7-1.2-3-1 2-1.6 4.3-2.6 7-3a401.2 401.2 0 0 1 23-12Z"/><path style="opacity:1" fill="#e5dbb4" d="M89.5 82.5c1.9.3 3.6 1 5 2 .6 1.3.6 2.3 0 3-4.3-2.6-9-3.6-14-3-1.6.3-3 0-4-1 4.3-.8 8.6-1.1 13-1Z"/><path style="opacity:1" fill="#252c25" d="M96.5 80.5c-.2 1 .2 1.7 1 2a7 7 0 0 1 1 4c2-.2 4 0 6 .5-.6.4-.9.9-1 1.5-3.7 0-6.7-1.3-9-4-1.4-1-3.1-1.7-5-2a7 7 0 0 0-2-3 4 4 0 0 0-2-3.5l1-.5c1.5 2 3.2 3.8 5 5.5 1.7.4 3.4.2 5-.5Z"/><path style="opacity:.961" fill="#e7dfbf" d="M158.5 78.5c1.5-.3 2.8 0 4 1-.2.6-.5 1-1 1.5-5 1.8-10 3.3-15 4.5v1c-.5 0-.9.4-1 1l3 2a9.9 9.9 0 0 1-6 1 68 68 0 0 0-7-2 6.6 6.6 0 0 0-6-.5c-8.6 3.2-15 8.3-19 15.5-.7 0-1 .3-1 1-1-2.1-1.3-4.4-1-7l2.5-3c1.3.8 2.5.5 3.5-1a169 169 0 0 1 13-7.5 292 292 0 0 1 16 0c4-4.6 9-7.1 15-7.5Z"/><path style="opacity:1" fill="#393625" d="M174.5 60.5c-1 .9-1 1.6 0 2a9 9 0 0 0-7 5c-1.6 2.2-3 4.5-4 7-.9.7-1.2 1.7-1 3-1.6-.3-3 0-4 1-6 .4-11 2.9-15 7.5a292 292 0 0 0-16 0 169 169 0 0 0-13 7.5c-1.1-1.2-1.1-2.2 0-3 .4 1 1 1.2 2 .5 5.3-6.1 12-8.6 20-7.5a8.8 8.8 0 0 0 7 .5 30.3 30.3 0 0 1 17-9c2-2.2 3.3-4.7 4-7.5 2.5-2 4.8-4.1 7-6.5 1-.5 2-.6 3-.5Z"/><path style="opacity:1" fill="#79674a" d="m177.5 79.5-3 4c-5.4 2.4-11 4.4-17 6-4.6.6-9 2-13 4-.8-1.1-1.8-1.1-3 0-.2-1.3.1-2.3 1-3 2.1.3 4.1 0 6-1l-3-2c.1-.6.5-1 1-1a19 19 0 0 0 12 1.5l10-4c.8-.7 1-1.5 1-2.5 1.6.5 3.3.9 5 1v-4c1.3-.2 2.3.1 3 1Z"/><path style="opacity:.996" fill="#101a18" d="M121.5 69.5h2a7 7 0 0 0-3.5 4c-.3 3-.1 6 .5 9l-6 8c-1.1.8-1.1 1.8 0 3h-2c-.3-.8-1-1.2-2-1-1.7-1.8-3.7-3-6-4 2 0 4 .3 6 1 2.1-2.1 4.4-3.8 7-5 .3-2 0-3.6-1-5-.9-1.6-1.4-3.3-1.5-5l2 2 1-6c1-.8 2.2-1.2 3.5-1Z"/><path style="opacity:1" fill="#b9a681" d="M76.5 83.5c1 1 2.4 1.3 4 1a10 10 0 0 0 4 5c-.9.8-1.9 1.3-3 1.5 1.2.7 1.2 1.2 0 1.5-2-1.1-4.2-2.1-6.5-3-1 2.5-2.2 2.5-3.5 0-1 .9-1.6 1.9-2 3-.1-1.9-.4-3.9-1-6-1 2.5-1.9 2.5-2.5 0a5.5 5.5 0 0 1-1.5 3c-.7-3.4.6-5.1 4-5l8-1Z"/><path style="opacity:1" fill="#a18d6b" d="M174.5 83.5a68.9 68.9 0 0 1-22 17c1.2-3.5 3.6-6 7-7.5a3.3 3.3 0 0 1-2-3.5c6-1.6 11.6-3.6 17-6Z"/><path style="opacity:1" fill="#b9a47d" d="M80.5 84.5c5-.6 9.7.4 14 3 .6-.7.6-1.7 0-3 2.3 2.7 5.3 4 9 4h1c2.3 1 4.3 2.2 6 4h-3c-3.2-1-6.5-1-10 0-1-1-2.1-1-3.5 0-1.9-2.9-2.7-2.6-2.5 1h-4c-2.2.3-4.2 0-6-1 1.2-.3 1.2-.8 0-1.5 1.1-.2 2.1-.7 3-1.5a10 10 0 0 1-4-5Z"/><path style="opacity:1" fill="#998a6c" d="M135.5 88.5a68 68 0 0 1 7 2c-.9.7-1.2 1.7-1 3l-20 11c-2.4.5-4.7 1.4-7 2.5 2.4 1.1 4.8 2.5 7 4l-4 3c.8 1 1.2 2.2 1 3.5a22.5 22.5 0 0 1-11 14c-.1-1.8.2-3.4 1-5 .9-1 1.9-1 3 0 .8-.5 1.1-1.1 1-2a14 14 0 0 0 4-9 57.9 57.9 0 0 0-4-6 19 19 0 0 0-3-5c0-.7.3-1 1-1 5 .6 9.3-1.1 13-5l2 2a59 59 0 0 0 9-10.5c-3.7-1-3.4-1.5 1-1.5Z"/><path style="opacity:.994" fill="#15201d" d="M177.5 79.5h2c0 .7.3 1 1 1 .1 3-.9 5.8-3 8l1 1c1.4-.8 3-1.5 4.5-2 1 .3 1.5 1 1.5 2-2.7.4-5 1.4-7 3a51.2 51.2 0 0 0-18 15h-2c-.3-3.7 1-5.7 4-6-2.1-1-4.1-.7-6 1-2.4 3.4-5.7 5-10 5 .6-.9 1-1.9 1-3a7.6 7.6 0 0 0 6-4 68.9 68.9 0 0 0 25-21Z"/><path style="opacity:1" fill="#e7d4ad" d="M107.5 92.5a30 30 0 0 0-15 6c0-3 1.6-5 5-6 3.5-1 6.8-1 10 0Z"/><path style="opacity:1" fill="#bba97f" d="M135.5 88.5c-4.4 0-4.7.5-1 1.5a59 59 0 0 1-9 10.5l-2-2c-3.7 3.9-8 5.6-13 5 4-7.2 10.4-12.3 19-15.5 2.2-.8 4.2-.6 6 .5Z"/><path style="opacity:1" fill="#a8956e" d="M97.5 92.5c-3.4 1-5 3-5 6a30 30 0 0 1 15-6h3c1-.2 1.7.2 2 1-7.4 0-13.9 2.3-19.5 7a5 5 0 0 0-.5 3c-.7.4-1.2 1-1.5 2v-6l-3.5 7c.1-1 0-2-.5-3-1.6 1.5-3 3.1-4 5l-1-3c-.3 1-.8 1.6-1.5 2-.3-1.5 0-2.8 1-4 1 1.3 2 1.3 3 0 2.3-2.3 2.3-4.5 0-6.5 1-.5 2-.6 3-.5v-3h4c-.2-3.6.6-3.9 2.5-1 1.4-1 2.5-1 3.5 0Z"/><path style="opacity:1" fill="#a99775" d="M69.5 92.5a3 3 0 0 0 1 3c1.4-1.9 3.1-2.2 5-1a45 45 0 0 1-5 19c-.8 2.1-1.3 4.5-1.5 7l-1-3c0 3.3.2 6.6.5 10-1.6-4-2.2-8.4-2-13 1.4-4.5 2.4-9.1 3-14-.4-2.5-1.2-4.9-2.5-7-.2 3.5-.7 6.9-1.5 10 .2-4-.1-8-1-12v-2c.8-.8 1.3-1.8 1.5-3 .6 2.5 1.5 2.5 2.5 0 .6 2.1.9 4.1 1 6Z"/><path style="opacity:.996" fill="#2c261c" d="M59.5 101.5c.6.9 1 1.9 1 3v1a15.3 15.3 0 0 1-7.5-7c-1.8-5.2-3-10.5-4-16a7.5 7.5 0 0 1-3.5-3c.9-1.1 1.7-1.1 2.5 0 .5-1 .6-2 .5-3 3.4.4 6.6-.3 9.5-2 .6 1 .5 1.8-.5 2.5a12.1 12.1 0 0 1-7 1.5c2.2 8 5.2 15.7 9 23Z"/><path style="opacity:1" fill="#6b6253" d="M66.5 77.5c.5 0 .9.4 1 1a6 6 0 0 0-2 5c1.3-.2 2.3.1 3 1-3.4-.1-4.7 1.6-4 5v2c-.9 3.3-1.5 6.8-2 10.5-.2 1.4-.9 2.2-2 2.5 0-1.1-.4-2.1-1-3 1.1-1.8 2-3.8 2.5-6a29.7 29.7 0 0 1 4.5-18Z"/><path style="opacity:1" fill="#32271a" d="M144.5 93.5c-4.6 4.3-10 7.7-16 10a24 24 0 0 1-9 3l2-2 20-11c1.2-1.1 2.2-1.1 3 0Z"/><path style="opacity:1" fill="#a98d67" d="M157.5 89.5c-.1 1.6.5 2.8 2 3.5-3.4 1.5-5.8 4-7 7.5a7.6 7.6 0 0 1-6 4 98.2 98.2 0 0 1-17.5 3c-1-.1-1.9-.6-2.5-1.5 1.3-.4 2-1.3 2-2.5 6-2.3 11.4-5.7 16-10 4-2 8.4-3.4 13-4Z"/><path style="opacity:.357" fill="#dbd7bb" d="M177.5 92.5c1.3-.2 2.3.1 3 1a68.6 68.6 0 0 0-15 13 4.9 4.9 0 0 1-4 1h-2a51.2 51.2 0 0 1 18-15Z"/><path style="opacity:1" fill="#bfac85" d="M81.5 92.5c1.8 1 3.8 1.3 6 1v3c-1-.1-2 0-3 .5 2.3 2 2.3 4.2 0 6.5-1 1.3-2 1.3-3 0a4.9 4.9 0 0 0-1 4c-.9 5-1.2 10-1 15-1 10.8-2.6 21.5-5 32-.4 1.1-1 2.1-2 3-1-2.2-1.3-4.6-1-7a110 110 0 0 0 3-19c.6-.1 1.1-.4 1.5-1-.5-5.9 0-11.6 1.5-17l-1-3a25 25 0 0 0-2.5 10l-3-1c-.5-2-.7-4-.5-6a45 45 0 0 0 5-19c-1.9-1.2-3.6-.9-5 1a3 3 0 0 1-1-3c.4-1.1 1-2.1 2-3 1.3 2.5 2.5 2.5 3.5 0 2.3.9 4.4 1.9 6.5 3Z"/><path style="opacity:1" fill="#ccc0a5" d="M66.5 114.5c-.7-3.6-1-7.3-1-11 .8-3.1 1.3-6.5 1.5-10 1.3 2.1 2.1 4.5 2.5 7-.6 4.9-1.6 9.5-3 14Z"/><path style="opacity:1" fill="#c0ac83" d="M112.5 93.5h2c-1 1.5-2.2 1.8-3.5 1l-2.5 3c0-1-.5-1.7-1.5-2-2.6.3-4.8 1.3-6.5 3-1 5-3 9.7-6 14-1.1 1.3-2.1 1.3-3 0 .9-2.9 1.2-5.9 1-9-.1-1 0-2 .5-3 5.6-4.7 12.1-7 19.5-7Z"/><path style="opacity:1" fill="#514735" d="m121.5 104.5-2 2c1 .8 1.8 1.8 2.5 3 .6-2.2 1.8-2.4 3.5-.5-1.2.4-2.2 1-3 2 .2.4.6.6 1 .5a7 7 0 0 1-2 3c-1.2.8-2.2 1.8-3 3 .2-1.3-.2-2.5-1-3.5l4-3a51.8 51.8 0 0 0-7-4c2.3-1.1 4.6-2 7-2.5Z"/><path style="opacity:1" fill="#7a7059" d="M128.5 103.5c0 1.3-.7 2-2 2.5.6.9 1.4 1.4 2.5 1.5 6-.5 11.8-1.5 17.5-3 0 1.1-.4 2.1-1 3-3.6.4-7 1.4-10 3-4-.1-8 .2-12 1-.4 0-.8-.1-1-.5.8-1 1.8-1.6 3-2-1.7-1.9-2.9-1.7-3.5.5-.7-1.2-1.5-2.2-2.5-3a24 24 0 0 0 9-3Z"/><path style="opacity:1" fill="#8d7f63" d="M87.5 106.5c-.3 1.9-1 3.6-2 5-1.2.8-2 2.4-2.5 5-.3-4.6-1.2-5-2.5-1 .3 2.6 0 4.9-1 7-.2-5 .1-10 1-15 .7-.4 1.2-1 1.5-2l1 3c1-1.9 2.4-3.5 4-5 .5 1 .6 2 .5 3Z"/><path style="opacity:1" fill="#bea97d" d="M92.5 103.5c.2 3.1-.1 6.1-1 9-1.2.5-1.9 1.5-2 3-.7 3-1 6-1 9-.7 0-1 .3-1 1-1.2-4.1-.8-8.3 1-12.5l-1-.5-3 6c.2-2.4.5-4.7 1-7 1-1.4 1.7-3.1 2-5 1-2.3 2.2-4.6 3.5-7v6c.3-1 .8-1.6 1.5-2Z"/><path style="opacity:1" fill="#092122" d="m157.5 107.5-14 5.5c-1.6.7-3.1.6-4.5-.5-.3 1-.8 1.6-1.5 2 .3-2-.3-3.3-2-4 3-1.6 6.4-2.6 10-3 4.3 0 7.6-1.6 10-5 1.9-1.7 3.9-2 6-1-3 .3-4.3 2.3-4 6Z"/><path style="opacity:1" fill="#0a1b1e" d="M135.5 110.5c1.7.7 2.3 2 2 4-1.3 1.5-3 2.5-5 3h-4c-2.1-1.4-4.1-1-6 1a4.9 4.9 0 0 1-1-4 7 7 0 0 0 2-3c4-.8 8-1.1 12-1Z"/><path style="opacity:1" fill="#bea57e" d="M100.5 98.5c1.4-.2 2.7 0 4 .5-2.3 2-2.3 3.8 0 5.5-.9 2-.7 4 .5 6 1-2.4 1.6-2.1 1.5 1-4.8.5-7.1 3.1-7 8-1.3-.2-2.3.1-3 1-1.9 1-3.7 1-5.5 0a12 12 0 0 1-2.5 4c0-3 .3-6 1-9 .1-1.5.8-2.5 2-3 .9 1.3 1.9 1.3 3 0 3-4.3 5-9 6-14Z"/><path style="opacity:1" fill="#242119" d="M64.5 91.5c.9 4 1.2 8 1 12 0 3.7.3 7.4 1 11-.2 4.6.4 9 2 13v1c.3 2 0 3.6-1 5a64.6 64.6 0 0 1-3.5-21 9.2 9.2 0 0 0-3.5-6v-2c1.1-.3 1.8-1.1 2-2.5.5-3.7 1.1-7.2 2-10.5Z"/><path style="opacity:1" fill="#bba47b" d="M108.5 97.5c-.3 2.6 0 4.9 1 7a19 19 0 0 1 3 5c-2.7-.1-3.4.9-2 3a21 21 0 0 0-2 7 68.8 68.8 0 0 0-6 7.5c-1.3.2-2.7 0-4-.5 5.5-4 8.7-9.3 9.5-16-.7 2-1.9 3.8-3.5 5a24 24 0 0 0-6.5 7c-.3-1-.8-1.6-1.5-2 .7-.9 1.7-1.2 3-1-.1-4.9 2.2-7.5 7-8 0-3.1-.4-3.4-1.5-1-1.2-2-1.4-4-.5-6-2.3-1.7-2.3-3.5 0-5.5a8.4 8.4 0 0 0-4-.5c1.7-1.7 3.9-2.7 6.5-3 1 .3 1.5 1 1.5 2Z"/><path style="opacity:1" fill="#423630" d="M85.5 111.5c-.5 2.3-.8 4.6-1 7-.5 1.5-1.2 2.8-2 4-.4-2.5-1-4.8-2-7 1.3-4 2.2-3.6 2.5 1 .5-2.6 1.3-4.2 2.5-5Z"/><path style="opacity:1" fill="#b59d6b" d="M112.5 109.5c1.2 1.5 2.5 3.5 4 6a14 14 0 0 1-4 9c-3.4.1-4.7-1.5-4-5a21 21 0 0 1 2-7c-1.4-2.1-.7-3.1 2-3Z"/><path style="opacity:1" fill="#b39e7a" d="M74.5 131.5c-1.4-2.6-2.2-2.3-2.5 1a19.2 19.2 0 0 1-3.5-4v-1a140 140 0 0 1-.5-10l1 3c.2-2.5.7-4.9 1.5-7-.2 2 0 4 .5 6l3 1a25 25 0 0 1 2.5-10l1 3c-1.5 5.4-2 11.1-1.5 17-.4.6-.9.9-1.5 1Z"/><path style="opacity:1" fill="#595244" d="M128.5 117.5h4c2.8 2.6 2.3 4.6-1.5 6 .5 4-1 7.4-4.5 10h-4c3.1-4.2 5.8-8.7 8-13.5-2-1.3-4-1.5-6-.5.7-1.7 2-2.3 4-2Z"/><path style="opacity:.094" fill="#e3e0c6" d="M157.5 107.5h4a4.5 4.5 0 0 1-2 3c-6.5 3.1-13.1 5.8-20 8a105 105 0 0 1-7 23 134 134 0 0 0-9.5 10 86.7 86.7 0 0 1-3.5 16c-.8-1-1.5-2.7-2-5v-3h3v-9l7-8c2.4-2.2 4.2-4.9 5.5-8l4.5-18a40.5 40.5 0 0 0 20-9Z"/><path style="opacity:1" fill="#b29e73" d="M108.5 119.5c-.7 3.5.6 5.1 4 5 .1.9-.2 1.5-1 2-1.1-1-2.1-1-3 0a9.1 9.1 0 0 0-1 5h-1a4.5 4.5 0 0 1-3-2c-1 .4-1 1.1 0 2-4.4.8-8.7 1.8-13 3l-3-.5c.8-.7 1-1.5 1-2.5l10-5c1.3.5 2.7.7 4 .5 1.9-2.7 3.9-5.2 6-7.5Z"/><path style="opacity:1" fill="#232725" d="M121.5 114.5c-.3 1.5 0 2.8 1 4 1.9-2 3.9-2.4 6-1-2-.3-3.3.3-4 2a29 29 0 0 0-3 8c-1.8 4-4.8 6.8-9 8-1-.5-2-.8-3-1a53 53 0 0 1-8 2h-3c-1 .2-1.7-.2-2-1 3.6-.8 7-2.1 10-4h1c5.6-3.1 9.2-7.8 11-14 .8-1.2 1.8-2.2 3-3Z"/><path style="opacity:1" fill="#2e2823" d="M80.5 115.5c1 2.2 1.6 4.5 2 7-.4 3.7-.8 7.3-1 11-.7 6-1.7 12-3 18 .1.6.5 1 1 1a6 6 0 0 1-5 2c2.4-10.5 4-21.2 5-32 1-2.1 1.3-4.4 1-7Z"/><path style="opacity:1" fill="#afa17e" d="M106.5 131.5c-3 1.9-6.4 3.2-10 4l-10 3a21.2 21.2 0 0 0-5 10v2a3 3 0 0 1-2 2c-.5 0-.9-.4-1-1 1.3-6 2.3-12 3-18-.2 3 0 6 .5 9l3-9a4 4 0 0 1 3.5-2c0 1-.2 1.8-1 2.5l3 .5c4.3-1.2 8.6-2.2 13-3-1-.9-1-1.6 0-2a4.5 4.5 0 0 0 3 2Z"/><path style="opacity:1" fill="#17221e" d="M157.5 107.5a40.5 40.5 0 0 1-20 9l-4.5 18a22.6 22.6 0 0 1-5.5 8c0-1.9.3-3.7 1-5.5-.6-1-1.2-1.8-2-2.5v-1c3.5-2.6 5-6 4.5-10 3.8-1.4 4.3-3.4 1.5-6 2-.5 3.7-1.5 5-3 .7-.4 1.2-1 1.5-2 1.4 1 2.9 1.2 4.5.5l14-5.5Z"/><path style="opacity:1" fill="#d6c49c" d="m98.5 126.5-10 5a4 4 0 0 0-3.5 2l-3 9c-.5-3-.7-6-.5-9 .2-3.7.6-7.3 1-11a285.1 285.1 0 0 0 5-10l1 .5a18.2 18.2 0 0 0-1 12.5c8.4 1.6 14-1.7 17-10 1.6-1.2 2.8-3 3.5-5-.8 6.7-4 12-9.5 16Z"/><path style="opacity:1" fill="#9c855d" d="M104.5 115.5c-3 8.3-8.6 11.6-17 10 0-.7.3-1 1-1a12 12 0 0 0 2.5-4c1.8 1 3.6 1 5.5 0 .7.4 1.2 1 1.5 2a24 24 0 0 1 6.5-7Z"/><path style="opacity:1" fill="#4f473a" d="M112.5 135.5a26 26 0 0 1-9 3c-2.5.4-3.2-.3-2-2a53 53 0 0 0 8-2c1 .2 2 .5 3 1Z"/><path style="opacity:1" fill="#928364" d="M126.5 133.5v1c-4.6 3.6-9 7.6-13 12-1.2.7-2.6 1-4 1 .4-.7 1-1.2 2-1.5l-2-1c4.2-.6 6.6-3.1 7-7.5 1.2-.5 2.4-1.2 3.5-2 1.2-3.3 3-6.1 5.5-8.5a3.9 3.9 0 0 0-4 .5 29 29 0 0 1 3-8c2-1 4-.8 6 .5a75.5 75.5 0 0 1-8 13.5h4Z"/><path style="opacity:1" fill="#5b503e" d="M96.5 135.5c.3.8 1 1.2 2 1l-9 3-8 9c.8-3.8 2.4-7.1 5-10l10-3Z"/><path style="opacity:1" fill="#af9f7e" d="M116.5 137.5a14 14 0 0 0-9 3.5c-3 .6-6 .5-9-.5l5-2a26 26 0 0 0 9-3c4.2-1.2 7.2-4 9-8 1.2-1 2.6-1 4-.5a22.7 22.7 0 0 0-5.5 8.5c-1.1.8-2.3 1.5-3.5 2Z"/><path style="opacity:1" fill="#99836e" d="M98.5 136.5h3c-1.2 1.7-.5 2.4 2 2l-5 2a47.3 47.3 0 0 0-12 5l3 2-3 2a9.2 9.2 0 0 1-5 1v-2l8-9 9-3Z"/><path style="opacity:1" fill="#b49c76" d="M116.5 137.5c-.4 4.4-2.8 6.9-7 7.5l2 1c-1 .3-1.6.8-2 1.5h-20l-3-2c3.8-2.2 7.8-3.9 12-5 3 1 6 1.1 9 .5a14 14 0 0 1 9-3.5Z"/><path style="opacity:1" fill="#3b3529" d="M68.5 128.5c1 1.4 2.1 2.8 3.5 4 .3-3.3 1.1-3.6 2.5-1a110 110 0 0 1-3 19c.2-1.4 0-2.7-.5-4-.2 4.5-.7 8.9-1.5 13-.2-5.9.1-11.7 1-17.5-.9-2.9-1.9-5.7-3-8.5 1-1.4 1.3-3 1-5Z"/><path style="opacity:1" fill="#463d36" d="M89.5 147.5h20l-18 2h-5l3-2Z"/><path style="opacity:1" fill="#161f1e" d="M126.5 134.5c.8.7 1.4 1.5 2 2.5a13 13 0 0 0-1 5.5l-7 8c-.8.8-1.3 1.8-1.5 3l-1-2c-1.3.3-2.8.5-4.5.5l1 1a3.3 3.3 0 0 0-2 3.5l-4-2c-1.1 0-2.1-.4-3-1-2.3-1.5-5-2.2-8-2-1.8-1-3.8-1.6-6-2l18-2c1.4 0 2.8-.3 4-1 4-4.4 8.4-8.4 13-12Z"/><path style="opacity:1" fill="#6e4e4b" d="M97.5 151.5c3-.2 5.7.5 8 2h-14c-3 0-5.3 1-7 3l1 2-14 3.5c7-7.7 15.6-11.2 26-10.5Z"/><path style="opacity:1" fill="#2f151b" d="M91.5 153.5h14c.9.6 1.9 1 3 1 0 1.4.3 2.8 1 4-5.5 1.1-10.9.8-16-1 4.5.2 8.8.2 13 0a47.1 47.1 0 0 0-15-4Z"/><path style="opacity:1" fill="#76383f" d="M91.5 153.5c5.1.5 10.1 1.8 15 4a124.7 124.7 0 0 1-22-1c1.7-2 4-3 7-3Z"/><path style="opacity:1" fill="#0d231a" d="M120.5 150.5v9h-3v9a7.1 7.1 0 0 0-4.5 3 14 14 0 0 0-3.5-1v-3h5c1-3.1 1.3-6.5 1-10-1.3.2-2.3-.1-3-1-.1-1.6.5-2.8 2-3.5l-1-1c1.7 0 3.2-.2 4.5-.5l1 2c.2-1.2.7-2.2 1.5-3Z"/><path style="opacity:1" fill="#6f6050" d="M87.5 159.5a138 138 0 0 1 21 2.5c-5.8.2-11.5.7-17 1.5h-14c.1-.6.4-1.1 1-1.5l9-2.5Z"/><path style="opacity:1" fill="#13191b" d="m108.5 154.5 4 2c.7.9 1.7 1.2 3 1 .3 3.5 0 6.9-1 10-.1-.6-.4-1.1-1-1.5a61 61 0 0 0-11-.5c-2-.7-4-1-6-1h-2c-1.1 0-2.1-.4-3-1 5.5-.8 11.2-1.3 17-1.5a138 138 0 0 0-21-2.5c-.3-.8-1-1.2-2-1l-1-2c3 .8 6 1.1 9 1a29.8 29.8 0 0 0 16 1c-.7-1.2-1-2.6-1-4Z"/><path style="opacity:.255" fill="#e0d9c7" d="M60.5 106.5c2 1.5 3 3.5 3.5 6 0 7.3 1.2 14.3 3.5 21 1.1 2.8 2.1 5.6 3 8.5a92.6 92.6 0 0 0-1 17.5 92.8 92.8 0 0 0-1 17l-3 6a23.3 23.3 0 0 0-3 6c-1-4-.2-7.6 2.5-11 2.7-11.2 3.5-22 2.5-32.5l2-3c-5.8-8-7.8-16.7-6-26-1.7-2-3-4.1-4-6.5.9-.7 1.2-1.7 1-3Z"/><path style="opacity:1" fill="#1c1012" d="M71.5 150.5c-.3 2.4 0 4.8 1 7 1-.9 1.6-1.9 2-3a6 6 0 0 0 5-2 3 3 0 0 0 2-2c1.8.1 3.5-.2 5-1h5c2.2.4 4.2 1 6 2-10.4-.7-19 2.8-26 10.5l14-3.5c1-.2 1.7.2 2 1l-9 2.5c-.6.4-.9.9-1 1.5-2.3 0-4.3.8-6 2-1 2.4-1.3 5.1-1 8l-2 3c-.2-5.7.1-11.4 1-17 .8-4.1 1.3-8.5 1.5-13 .5 1.3.7 2.6.5 4Z"/><path style="opacity:1" fill="#a68879" d="M96.5 164.5c2 0 4 .3 6 1l4 2c-3.3 1-6.6 1.6-10 2l2-2a4.5 4.5 0 0 1-2-3Z"/><path style="opacity:1" fill="#555c5f" d="M102.5 165.5a61 61 0 0 1 11 .5c.6.4.9.9 1 1.5h-8l-4-2Z"/><path style="opacity:1" fill="#c6b28c" d="M94.5 164.5h2c.2 1.2.9 2.2 2 3l-2 2-12 3 2-2c8.6-.5 9-1.8 1-4l7-2Z"/><path style="opacity:1" fill="#e4d3a3" d="M77.5 163.5h14c.9.6 1.9 1 3 1l-7 2c8 2.2 7.6 3.5-1 4a9 9 0 0 0-5.5 1 5.3 5.3 0 0 1 1.5-6c-3.6-1-7.3-1-11 0 1.7-1.2 3.7-2 6-2Z"/><path style="opacity:1" fill="#191714" d="M106.5 167.5h3v3a13 13 0 0 0-5 .5c4 1.2 8 2.2 12 3 2.8 2.4 2.5 4.2-1 5.5a26.7 26.7 0 0 0-5.5-3 5.3 5.3 0 0 0-3.5 3 134 134 0 0 1-14 7c-1.4.2-2.7 0-4-.5 2-1.6 4.4-2.8 7-3.5.8-.5 1.1-1.1 1-2 2.8-2 5.8-3.8 9-5.5-1.2-.8-2.6-1.3-4-1.5.4-.7 1-1.2 2-1.5-6.3-.3-12.3.5-18 2.5a13 13 0 0 0-5 .5l-10 4.5c-2 1-3.4 2.8-4 5-.8-.3-1.2-1-1-2l3-6 2-3c-.1 3.5.9 3.8 3 1l11-2 12-3c3.4-.4 6.7-1 10-2Z"/><path style="opacity:1" fill="#cbc2bd" d="M71.5 165.5c-.6 3.5.1 6.5 2 9-2.1 2.8-3.1 2.5-3-1-.3-2.9 0-5.6 1-8Z"/><path style="opacity:1" fill="#121a21" d="M117.5 168.5a6.5 6.5 0 0 0 3 3c.5 2.3 1.5 4.3 3 6-.1 2.1.6 2.5 2 1 1.3 1 1.3 2 0 3a9 9 0 0 1-4-3 39 39 0 0 1-12 9c-.8-.4-1.6-.8-2.5-1a52.4 52.4 0 0 0-6.5 5c-1.5.3-2.8 0-4-1l.5-1c4-2.5 7.8-5.2 11.5-8l-2-2a5.3 5.3 0 0 1 3.5-3c2 .8 3.8 1.8 5.5 3 3.5-1.3 3.8-3.1 1-5.5-4-.8-8-1.8-12-3a13 13 0 0 1 5-.5c1.2.2 2.4.5 3.5 1a7.1 7.1 0 0 1 4.5-3Z"/><path style="opacity:1" fill="#f0e7c0" d="m86.5 170.5-2 2-11 2a11.3 11.3 0 0 1-2-9c3.7-1 7.4-1 11 0a5.3 5.3 0 0 0-1.5 6 9 9 0 0 1 5.5-1Z"/><path style="opacity:1" fill="#9c7a69" d="M101.5 173.5c-2.4-.2-4.8.1-7 1-1.1 0-2.1.4-3 1h-3c-.7-.9-1.7-1.2-3-1 5.7-2 11.7-2.8 18-2.5-1 .3-1.6.8-2 1.5Z"/><path style="opacity:1" fill="#592f32" d="M101.5 173.5c1.4.2 2.8.7 4 1.5a102 102 0 0 0-9 5.5c-.4-1.4-1.4-2.3-3-2.5l2-1c-.8-.7-1-1.5-1-2.5 2.2-.9 4.6-1.2 7-1Z"/><path style="opacity:1" fill="#dcbba5" d="M85.5 174.5c1.3-.2 2.3.1 3 1a52 52 0 0 0-13.5 7c-1-1.7-2.2-2-3.5-1 .2-1-.2-1.7-1-2l10-4.5a13 13 0 0 1 5-.5Z"/><path style="opacity:1" fill="#8c4c3f" d="M88.5 175.5h3l1 2c-3.6 2.1-7.1 4.4-10.5 7-1.3-.3-2.3-1-3-2-.7.8-1.5 1-2.5 1h-3c-.8 3.7-1.1 7.4-1 11-1-4.1-1.3-8.5-1-13 1.3-1 2.5-.7 3.5 1a52 52 0 0 1 13.5-7Z"/><path style="opacity:.024" fill="#dad8b9" d="M117.5 162.5c.5 2.3 1.2 4 2 5a21 21 0 0 1 6 5l24 12a91 91 0 0 0 12 11c-.7 0-1 .3-1 1a4068.8 4068.8 0 0 0-11-8 5.3 5.3 0 0 0-5-4 7 7 0 0 0-4-1c-2.4-2-5-3.6-8-5-1.7 1.1-2.4.4-2-2-3.8-.8-7-2.5-10-5a6.5 6.5 0 0 1-3-3v-6Z"/><path style="opacity:1" fill="#10151c" d="M132.5 205.5a7 7 0 0 0 1-4c1.8-2.3 2.8-5 3-8h-5c1.4-2.1.7-3.1-2-3 .2-1.4 0-2.7-.5-4-1 .8-2.2 1.2-3.5 1 .9-1.6 1.4-3.3 1.5-5L114.5 195a13 13 0 0 1-5 .5l8-9-1-1-6 4c-.8-.5-1.1-1.1-1-2a39 39 0 0 0 12-9 9 9 0 0 0 4 3c1.3-1 1.3-2 0-3-1.4 1.5-2.1 1.1-2-1 1.8-.5 3.8-.5 6 0-.3 1.5 0 2.8 1 4a18 18 0 0 0 8 2v18h-3v4h-3Z"/><path style="opacity:1" fill="#854942" d="M94.5 174.5c0 1 .2 1.8 1 2.5l-2 1c1.6.2 2.6 1 3 2.5.1.9-.2 1.5-1 2-2.6.7-5 1.9-7 3.5 1.3.5 2.6.7 4 .5 1.2.8 1.2 1.8 0 3-2.1 2-4 2-5.5 0-.4.2-.6.6-.5 1-1.4.2-2.7 0-4-.5a17.3 17.3 0 0 0-6-6.5c1 0 1.8-.2 2.5-1 .7 1 1.7 1.7 3 2 3.4-2.6 6.9-4.9 10.5-7a44 44 0 0 1-1-2c.9-.6 1.9-1 3-1Z"/><path style="opacity:.996" fill="#121616" d="M120.5 171.5c3 2.5 6.2 4.2 10 5-.4 2.4.3 3.1 2 2 3 1.4 5.6 3 8 5-1.1.9-1.1 1.7 0 2.5 1.6.5 3.3.7 5 .5a7 7 0 0 1-1 4c-4.3 9-8.3 18-12 27 1.2-3.3 1.2-6.7 0-10l-2 1c0-1.5.6-2.5 2-3h3v-4h3v-18a18 18 0 0 1-8-2 4.9 4.9 0 0 1-1-4c-2.2-.5-4.2-.5-6 0a13.9 13.9 0 0 1-3-6Z"/><path style="opacity:.986" fill="#efe7d2" d="M70.5 179.5c.8.3 1.2 1 1 2-.8 3.8-1.3 7.8-1.5 12-1.5-3.7-2.3-3.7-2.5 0v3c.3 3.1-.2 6.1-1.5 9-.3-1-.8-1.6-1.5-2v-3a37 37 0 0 1 2-16c.6-2.2 2-4 4-5Z"/><path style="opacity:.753" fill="#706e53" d="M144.5 184.5c2.6.2 4.2 1.6 5 4-2-1-3.6-2.3-5-4Z"/><path style="opacity:1" fill="#914941" d="M76.5 183.5c2.1 1.2 4.1 3.4 6 6.5 1.3.5 2.6.7 4 .5.5 5 2.8 6 7 3 1.2.4 2.2 1 3 2a40 40 0 0 0-13 6c0 .9-.4 1.9-1 3h-1a16.6 16.6 0 0 1-9-10c-.1-3.6.2-7.3 1-11h3Z"/><path style="opacity:.875" fill="#434538" d="M65.5 182.5c-.2 1 .2 1.7 1 2a37 37 0 0 0-2 16l-2-9v-3c.7-2.1 1.7-4.1 3-6Z"/><path style="opacity:1" fill="#533136" d="M109.5 195.5a7 7 0 0 0-4 3c.5.7 1.2 1.2 2 1.5a22 22 0 0 0-9 2.5c0-1 .2-1.8 1-2.5-1-.3-1.6-.8-2-1.5 3.5-.8 6.9-2 10-4 1.3-.7 1.3-1.3 0-2a32.1 32.1 0 0 1-7 3c1-1.5 2.4-2.8 4-4-1.3-1.1-2.6-1.1-4 0 2-1.7 4-3.4 6.5-5 .9.2 1.7.6 2.5 1-.1.9.2 1.5 1 2l6-4 1 1-8 9Z"/><path style="opacity:1" fill="#7a3e3d" d="m106.5 179.5 2 2c-3.7 2.8-7.5 5.5-11.5 8l-.5 1c1.2 1 2.5 1.3 4 1 1.4-1.1 2.7-1.1 4 0-1.6 1.2-3 2.5-4 4a27.2 27.2 0 0 1-5 3 41.8 41.8 0 0 1-12 3 40 40 0 0 1 13-6c-.8-1-1.8-1.6-3-2-4.2 3-6.5 2-7-3 0-.4.1-.8.5-1 1.5 2 3.4 2 5.5 0 1.2-1.2 1.2-2.2 0-3 4.7-2 9.4-4.4 14-7Z"/><path style="opacity:1" fill="#1a1b19" d="M140.5 183.5a7 7 0 0 1 4 1c1.4 1.7 3 3 5 4 0 .7.3 1 1 1v6c.4 4.4-.3 8.7-2 13l-2 1c1-2.2 1.6-4.6 2-7-.3-3-2-4.3-5-4a17 17 0 0 1 2-6.5c0-.8-.4-1.3-1-1.5a7 7 0 0 0 1-4 13 13 0 0 1-5-.5c-1.1-.8-1.1-1.6 0-2.5Z"/><path style="opacity:1" fill="#2b1317" d="M97.5 198.5h-2c1.8-.8 3.4-1.8 5-3 2.4-.7 4.8-1.7 7-3 1.3.7 1.3 1.3 0 2-3.1 2-6.5 3.2-10 4Z"/><path style="opacity:1" fill="#161313" d="M131.5 193.5a6.5 6.5 0 0 0-3 3c-7.8 5.2-15.8 9.8-24 14a42 42 0 0 1-20 3c-3.9-1-6.9-3-9-6h3c1.5 1 3.2 1.6 5 2 6 1.3 12 1 18-1 1.3.2 2.3-.1 3-1 8.9-3 16.2-8.1 22-15.5-1-.5-2-.3-3 .5-.9.1-1.5-.2-2-1 1-1.7 2.4-3 4-4 1.3.2 2.5-.2 3.5-1 .5 1.3.7 2.6.5 4 2.7-.1 3.4.9 2 3Z"/><path style="opacity:1" fill="#1c1d20" d="M125.5 187.5c-1.6 1-3 2.3-4 4 .5.8 1.1 1.1 2 1a32.3 32.3 0 0 1-19 12l-9 2-3-1c1.7-1.5 3.7-2.5 6-3a22 22 0 0 1 9-2.5c-.8-.3-1.5-.8-2-1.5a7 7 0 0 1 4-3c1.7.2 3.4 0 5-.5l12.5-12.5c-.1 1.7-.6 3.4-1.5 5Z"/><path style="opacity:1" fill="#ca9384" d="M71.5 181.5c-.3 4.5 0 8.9 1 13 1.5 4.5 4.5 7.9 9 10 1 2 2.7 3.4 5 4a3 3 0 0 1-3 1c-1.8-.4-3.5-1-5-2a29.8 29.8 0 0 1-11-14c.2-3.7 1-3.7 2.5 0 .2-4.2.7-8.2 1.5-12Z"/><path style="opacity:1" fill="#532b2a" d="M131.5 193.5h5c-.2 3-1.2 5.7-3 8 0-.4-.1-.8-.5-1-5 1.8-8.8 4.8-11.5 9a7 7 0 0 0-4 1c-.1-1 0-2 .5-3 3.1-2.4 6.3-4.8 9.5-7 .7-1.2 1-2.6 1-4a6.5 6.5 0 0 1 3-3Z"/><path style="opacity:1" fill="#222013" d="m62.5 191.5 2 9v3c0 2.4-.3 4.7-1 7-1-6.1-1.3-12.5-1-19Z"/><path style="opacity:1" fill="#512117" d="M67.5 193.5a29.8 29.8 0 0 0 11 14h-3c-1 0-1.8-.2-2.5-1a41 41 0 0 1-4.5-7c.2-1.3-.1-2.3-1-3v-3Z"/><path style="opacity:.359" fill="#e2dcbb" d="M161.5 195.5c2.6 1.6 5 3.6 7 6 .8 10 1.3 20 1.5 30 .7.5 1.2 1.2 1.5 2a11.4 11.4 0 0 0-1 11 14 14 0 0 1-2 4v-5c-.3-11.5-.3-23 0-34.5-2.5-4.2-5.2-8.4-8-12.5 0-.7.3-1 1-1Z"/><path style="opacity:1" fill="#733f36" d="M95.5 198.5h2c.4.7 1 1.2 2 1.5-.8.7-1 1.5-1 2.5-2.3.5-4.3 1.5-6 3l3 1 9-2v3c-.7.9-1.7 1.2-3 1 .4-.7 1-1.2 2-1.5l-2-.5c-4 1.2-8 1.7-12 1.5-2-1.7-4.4-2.9-7-3.5.6-1.1 1-2.1 1-3 4.1-.4 8.1-1.4 12-3Z"/><path style="opacity:1" fill="#a39479" d="M153.5 194.5c2.2.7 4 2 5.5 4 2.2 2.9 4.4 5.9 6.5 9 .1.7 0 1.4-.5 2-1.2-1.2-2.3-1.2-3.5 0l2 4c.6 2.2 0 4.2-2 6h-1a28 28 0 0 1-5-5l-6-5c4.1-.2 7.6 1.5 10.5 5-.5-5.2-2.8-9.6-7-13-.8-2.5-.6-4.9.5-7Z"/><path style="opacity:1" fill="#584842" d="M104.5 207.5v-3c7.7-1.7 14-5.7 19-12 1-.8 2-1 3-.5a45.7 45.7 0 0 1-22 15.5Z"/><path style="opacity:1" fill="#64343f" d="M128.5 196.5c0 1.4-.3 2.8-1 4-3.2 2.2-6.4 4.6-9.5 7a5 5 0 0 0-.5 3 6.6 6.6 0 0 1-5 3 3 3 0 0 1-3-1c2.9-1 5.2-2.6 7-5l-1.5-1a20.5 20.5 0 0 1-10.5 4c8.2-4.2 16.2-8.8 24-14Z"/><path style="opacity:1" fill="#08181a" d="M143.5 198.5c3-.3 4.7 1 5 4-.4 2.4-1 4.8-2 7l-1 4c-2 1.8-3 4.2-3 7-1.5.3-2.8 0-4-1 1.3-5.3 2.3-10.6 3-16a6 6 0 0 1 2-5Z"/><path style="opacity:1" fill="#534328" d="M153.5 194.5a8.8 8.8 0 0 0-.5 7c4.2 3.4 6.5 7.8 7 13a12.5 12.5 0 0 0-10.5-5l6 5-7-2v-4c1.7-4.3 2.4-8.6 2-13l2-2c.6.1 1 .5 1 1Z"/><path style="opacity:1" fill="#a1655e" d="M68.5 199.5a41 41 0 0 0 4.5 7c.7.8 1.5 1 2.5 1 2.1 3 5.1 5 9 6a11 11 0 0 1-9 0c-.8.5-1.1 1.1-1 2a15.6 15.6 0 0 1-8-8 9.2 9.2 0 0 0 2-8Z"/><path style="opacity:1" fill="#9f635a" d="M81.5 204.5h1c2.6.6 5 1.8 7 3.5 4 .2 8-.3 12-1.5l2 .5c-1 .3-1.6.8-2 1.5-6 2-12 2.3-18 1a3 3 0 0 0 3-1c-2.3-.6-4-2-5-4Z"/><path style="opacity:1" fill="#5f5239" d="M165.5 207.5a62 62 0 0 0 2 19.5c0 2.4-.3 4.5-1 6.5.3-4.2 0-8.2-1-12a100 100 0 0 0-2-8l-2-4c1.2-1.2 2.3-1.2 3.5 0 .5-.6.6-1.3.5-2Z"/><path style="opacity:1" fill="#88393a" d="M133.5 201.5a7 7 0 0 1-1 4c-1.4.5-2 1.5-2 3-1 1-1.3 2.4-1 4l-5 4c-1.8-2-2.8-4.2-3-7 2.7-4.2 6.6-7.2 11.5-9 .4.2.6.6.5 1Z"/><path style="opacity:1" fill="#d1c5bd" d="M67.5 196.5c.9.7 1.2 1.7 1 3 .5 3.2-.1 5.9-2 8 0-.4-.1-.8-.5-1a12 12 0 0 0 5.5 12c0 .7-.3 1-1 1-3.6 0-6-1.7-7-5v-4c.7-2.3 1-4.6 1-7 .7.4 1.2 1 1.5 2 1.3-2.9 1.8-5.9 1.5-9Z"/><path style="opacity:1" fill="#8a3734" d="M121.5 209.5c.2 2.8 1.2 5 3 7v1c-4 .7-8 .9-12 .5-.2-1.5-.2-3 0-4.5a6.6 6.6 0 0 0 5-3 7 7 0 0 1 4-1Z"/><path style="opacity:1" fill="#281211" d="M66.5 207.5c1.7 3.7 4.3 6.3 8 8 1.9.8 3.5 1.8 5 3h-8a12 12 0 0 1-5.5-12c.4.2.6.6.5 1Z"/><path style="opacity:1" fill="#714f4c" d="M144.5 190.5c.6.2 1 .7 1 1.5a17 17 0 0 0-2 6.5 6 6 0 0 0-2 5c-3 6.2-4.9 12.9-5.5 20-.7.9-1.5 1.5-2.5 2-1-2.6-1.3-5.3-1-8 3.7-9 7.7-18 12-27Z"/><path style="opacity:1" fill="#814140" d="M112.5 213.5c-.2 1.5-.2 3 0 4.5 4 .4 8 .2 12-.5a11.6 11.6 0 0 1-7 3c-3 0-6-.3-9-1-1.1-.7-2.5-1-4-1a214 214 0 0 1-11.5 2l-13.5-2a18.6 18.6 0 0 0-5-3c-.1-.9.2-1.5 1-2a11 11 0 0 0 9 0 42 42 0 0 0 20-3c3.9-.4 7.4-1.7 10.5-4l1.5 1c-1.8 2.4-4.1 4-7 5a3 3 0 0 0 3 1Z"/><path style="opacity:.999" fill="#201c17" d="M63.5 214.5c1 3.3 3.4 5 7 5l3 2c-3-.4-4 .6-3 3h-2c-1.8-1.6-2.8-1-3 1.5-1.4 5-2 10.2-2 15.5h3c.7 0 1 .3 1 1-8 1.5-15.1 4.8-21.5 10-.2-1.9.7-3.4 2.5-4.5 4-2.3 8.2-4 12.5-5.5l1.5-14c1-1.8 1.6-3.8 2-6l-3-8 .5-3c.2 1.2.7 2.2 1.5 3Z"/><path style="opacity:1" fill="#815352" d="M71.5 218.5h2c1.3 1.3 3 2.1 5 2.5a13 13 0 0 1-5 .5l-3-2c.7 0 1-.3 1-1Z"/><path style="opacity:1" fill="#3d3732" d="M108.5 219.5c3 .7 6 1 9 1l-7 2.5c1.6.2 2.9.7 4 1.5-3.5-.7-6.2.3-8 3-.3-2 .4-3.5 2-4.5a5 5 0 0 0-3-.5 3 3 0 0 1-2-2 9.2 9.2 0 0 1 5-1Z"/><path style="opacity:1" fill="#101519" d="M129.5 212.5c.8 4.6 1.5 9.3 2 14a24.8 24.8 0 0 0-9-3c-1.6.5-3.3.9-5 1h-3a8.8 8.8 0 0 0-4-1.5l7-2.5c2.8-.3 5.1-1.3 7-3v-1c1.7-1.4 3.3-2.8 5-4Z"/><path style="opacity:.975" fill="#181714" d="M141.5 222.5c2.8.5 4.1 2.1 4 5-1.7 7.5-2 14.8-1 22-.2 2.4.4 4.4 2 6l2 3-2 3a96.5 96.5 0 0 1-4.5-12c-.5-4.3-.7-8.7-.5-13v-1c1.4-3.2 1.8-6.6 1-10-.6-.9-1-1.9-1-3Z"/><path style="opacity:1" fill="#07191c" d="M103.5 220.5a3 3 0 0 0 2 2c.5 3.4-.9 5.8-4 7-.3-1.1-1.1-1.8-2.5-2a23.4 23.4 0 0 1-10.5 2v-1a3 3 0 0 0 3-1 5.7 5.7 0 0 1-2-5c4.7-.4 9.4-1.1 14-2Z"/><path style="opacity:1" fill="#69593d" d="M160.5 219.5h1c2.6 2 2.6 4 0 6 .1-.7 0-1.4-.5-2l-1 3c-.2 4.2-.7 8.2-1.5 12v-14c0-1 .2-1.8 1-2.5-.6-.5-1.3-.6-2-.5l3-2Z"/><path style="opacity:.329" fill="#a19b88" d="M62.5 189.5v2c-.3 6.5 0 12.9 1 19v4a5.5 5.5 0 0 1-1.5-3l-.5 3 3 8c-.4 2.2-1 4.2-2 6v-4c0-2.6-1-4.8-3-6.5 1.3-9.6 2.3-19.1 3-28.5Z"/><path style="opacity:.016" fill="#c8baa9" d="M114.5 224.5h3v1c-4.6-.8-8.2.5-11 4v-2c1.8-2.7 4.5-3.7 8-3Z"/><path style="opacity:1" fill="#161818" d="M73.5 218.5h6l13.5 2a214 214 0 0 0 11.5-2c1.5 0 2.9.3 4 1-1.8-.1-3.5.2-5 1-4.6.9-9.3 1.6-14 2-.2 2 .5 3.7 2 5a3 3 0 0 1-3 1h-2l-16-4c-1-2.4 0-3.4 3-3 1.7.2 3.4 0 5-.5-2-.4-3.7-1.2-5-2.5Z"/><path style="opacity:1" fill="#131b16" d="M141.5 203.5c-.7 5.4-1.7 10.7-3 16 1.2 1 2.5 1.3 4 1l-1 2c0 1.1.4 2.1 1 3-2 .3-3.4 1.4-4 3.5-1.3.5-2.6.7-4 .5-2.3-1.5-5-2.2-8-2-2.3-1.5-5-2.2-8-2h-1v-1c1.7-.1 3.4-.5 5-1 3.9.7 6.9 1.7 9 3-.5-4.7-1.2-9.4-2-14-.3-1.6 0-3 1-4l2-1c1.2 3.3 1.2 6.7 0 10-.3 2.7 0 5.4 1 8 1-.5 1.8-1.1 2.5-2 .6-7.1 2.5-13.8 5.5-20Z"/><path style="opacity:1" fill="#ac9d81" d="M163.5 213.5a100 100 0 0 1 2 8c.1 7.6-1 15-3.5 22a8.4 8.4 0 0 1-.5-4v-14c2.6-2 2.6-4 0-6 2-1.8 2.6-3.8 2-6Z"/><path style="opacity:.149" fill="#96927b" d="M118.5 225.5c3-.2 5.7.5 8 2-3 0-5.6-.7-8-2Z"/><path style="opacity:.149" fill="#b6a893" d="M142.5 225.5c.8 3.4.4 6.8-1 10-.2-2-.7-4-1.5-6-2 2.6-3.8 2.6-5.5 0 1.4.2 2.7 0 4-.5.6-2 2-3.2 4-3.5Z"/><path style="opacity:1" fill="#6b3f3d" d="m70.5 224.5 16 4c-5.1 1.4-10.1.7-15-2-.8-.5-1.1-1.1-1-2Z"/><path style="opacity:1" fill="#081d1e" d="M101.5 229.5c-1.1 3-3.1 5.1-6 6.5l1 1a3.3 3.3 0 0 0-2 3.5c-4.5-.2-7.3 1.8-8.5 6-.4-.6-.9-.9-1.5-1-.8-1.2-1.5-2.5-2-4 .6-2.2 1.6-4.2 3-6-.5-.8-1.1-1.1-2-1-.8-1.6-2.1-2.3-4-2 2.5-.8 5.1-1.3 8-1.5.6-.4.9-.9 1-1.5 3.7.1 7.2-.5 10.5-2 1.4.2 2.2.9 2.5 2Z"/><path style="opacity:.039" fill="#b7bbb1" d="M126.5 227.5c3-.2 5.7.5 8 2-3 0-5.6-.7-8-2Z"/><path style="opacity:1" fill="#3d2a29" d="M68.5 224.5h2c-.1.9.2 1.5 1 2 4.9 2.7 9.9 3.4 15 2h2v1c-.1.6-.4 1.1-1 1.5-2.9.2-5.5.7-8 1.5h-4c-1.5-.5-2.8-1.2-4-2l-3-3v-3Z"/><path style="opacity:.658" fill="#0a1816" d="M105.5 222.5c1-.1 2 0 3 .5a4.3 4.3 0 0 0-2 4.5v2c-2.6 2-4.6 4.3-6 7-.7-1.3-1.5-1.3-2.5 0-1.1 2.3-2 4.6-2.5 7-1.6 4.2-4 7.9-7 11 2.4-4.5 4.4-9.1 6-14-.1-1.6.5-2.8 2-3.5l-1-1c2.9-1.4 4.9-3.6 6-6.5 3.1-1.2 4.5-3.6 4-7Z"/><path style="opacity:1" fill="#403218" d="M148.5 208.5v4l7 2a28 28 0 0 0 5 5l-3 2-6 9c-2.2.9-3.2 2.6-3 5a3.6 3.6 0 0 0-3 3c-.8 3.6-1.2 7.3-1 11-1-7.2-.7-14.5 1-22 .1-2.9-1.2-4.5-4-5l1-2c0-2.8 1-5.2 3-7l1-4 2-1Z"/><path style="opacity:1" fill="#56472b" d="M145.5 213.5a40 40 0 0 1 12 5.5c-3.4 4.6-6.9 9-10.5 13.5.2-4.7-1-8.8-3.5-12.5.8-2.2 1.4-4.3 2-6.5Z"/><path style="opacity:1" fill="#423317" d="M161.5 225.5v14a38 38 0 0 0-4 13 16.2 16.2 0 0 1-6 5c-.9.6-1.9 1-3 1l-2-3a8 8 0 0 0 8.5-4 46 46 0 0 0 3.5-13c.8-3.8 1.3-7.8 1.5-12l1-3c.5.6.6 1.3.5 2Z"/><path style="opacity:1" fill="#d2cbaf" d="M68.5 224.5v3c-.5 4.7-1.2 9.4-2 14h-3c0-5.3.6-10.4 2-15.5.2-2.6 1.2-3 3-1.5Z"/><path style="opacity:1" fill="#766d47" d="m68.5 227.5 3 3c-1.1.3-1.8 1.1-2 2.5-.7 2.8-1 5.6-1 8.5 0 .7-.3 1-1 1 0-.7-.3-1-1-1 .8-4.6 1.5-9.3 2-14Z"/><path style="opacity:1" fill="#beaf95" d="M157.5 221.5c.7-.1 1.4 0 2 .5-.8.7-1 1.5-1 2.5a99.5 99.5 0 0 1-3.5 17c-4 7-5.8 6.6-5.5-1.5-.2-3.4.5-6.6 2-9.5l6-9Z"/><path style="opacity:1" fill="#857560" d="M79.5 232.5c1.9-.3 3.2.4 4 2-1.6 1.5-3 3.2-4 5a5.5 5.5 0 0 0-3-1.5 5.7 5.7 0 0 0 3-5.5Z"/><path style="opacity:.275" fill="#474d43" d="M100.5 236.5a36 36 0 0 1-4 7h-1c.6-2.4 1.4-4.7 2.5-7 1-1.3 1.8-1.3 2.5 0Z"/><path style="opacity:.012" fill="#dbd3b2" d="M106.5 236.5c1.3.7 1.3.7 0 0Z"/><path style="opacity:1" fill="#524e42" d="M83.5 234.5c.9-.1 1.5.2 2 1a17.9 17.9 0 0 0-3 6 21.6 21.6 0 0 0-4 5c-1.2.8-2.2 1.8-3 3-.3-.8-1-1.2-2-1l6-9c1-1.8 2.4-3.5 4-5Z"/><path style="opacity:1" fill="#c8b692" d="M71.5 230.5c1.2.8 2.5 1.5 4 2 .4.7 1 1.2 2 1.5l-3 1c-.7 1.7-1.7 3.2-3 4.5 1.5 4.4-.2 6.8-5 7 .7-.8 1.5-1.4 2.5-2 .7-1.2.6-2.2-.5-3 0-2.9.3-5.7 1-8.5.2-1.4.9-2.2 2-2.5Z"/><path style="opacity:1" fill="#918266" d="M158.5 224.5v14a1289 1289 0 0 1-5 11 6 6 0 0 1-5 2v-16c-.2-2.4.8-4.1 3-5-1.5 2.9-2.2 6-2 9.5-.3 8 1.5 8.6 5.5 1.5a99.5 99.5 0 0 0 3.5-17Z"/><path style="opacity:.161" fill="#aead99" d="M95.5 243.5h1a21 21 0 0 1-8 13v-2c3-3.1 5.4-6.8 7-11Z"/><path style="opacity:1" fill="#9b8c70" d="M165.5 221.5c1 3.8 1.3 7.8 1 12 .3 3.8 0 7.4-1 11a3 3 0 0 0-3 1 34.3 34.3 0 0 0-3 11c-.6 2.6-1 5.3-1 8-1 5.5-1.3 11.1-1 17h-3c.7-9.7 1.7-19.4 3-29 .6-4.7 2-9 4-13-.2 1.4 0 2.7.5 4 2.5-7 3.6-14.4 3.5-22Z"/><path style="opacity:1" fill="#605135" d="M148.5 235.5v16a6 6 0 0 0 5-2l5-11a46 46 0 0 1-3.5 13 8 8 0 0 1-8.5 4 7.1 7.1 0 0 1-2-6c-.2-3.7.2-7.4 1-11a3.6 3.6 0 0 1 3-3Z"/><path style="opacity:1" fill="#051b20" d="M82.5 241.5c.5 1.5 1.2 2.8 2 4a4.5 4.5 0 0 1-2 3c-.6 3.2-.6 6.6 0 10-3.3.7-4.7 2.7-4 6a13 13 0 0 1-5-.5c.3-1.3.5-2.8.5-4.5 1.4-1 3-1.8 4.5-2.5a6.8 6.8 0 0 1-3-1.5c.8-3 1.8-6 3-9 1.1-1.9 2.4-3.6 4-5Z"/><path style="opacity:1" fill="#0d1d1d" d="M94.5 240.5a78.9 78.9 0 0 1-6 14v2c-2.3 3-5 5.7-8 8h-2c-.7-3.3.7-5.3 4-6-.6-3.4-.6-6.8 0-10a4.5 4.5 0 0 0 2-3c.6.1 1.1.4 1.5 1 1.2-4.2 4-6.2 8.5-6Z"/><path style="opacity:1" fill="#b1a37c" d="M62.5 247.5c.1.7 0 1.4-.5 2-3.4.4-3.3 1.4.5 3l-3 4c.1.6.5 1 1 1 2 .2 2.4 1 1 2.5-2.4.8-4.6 2-6.5 3.5-.8-1.5-1.7-1.8-2.5-1l-5-8c4.1-4.2 9.1-6.6 15-7Z"/><path style="opacity:1" fill="#a9936f" d="M75.5 232.5h4c.1 2.4-.9 4.2-3 5.5 1.2.2 2.2.7 3 1.5l-6 9c-2.3.9-4.6 1-7 .5-1.5 1-2.9 2.2-4 3.5-3.8-1.6-4-2.6-.5-3 .5-.6.6-1.3.5-2l4-1c4.8-.2 6.5-2.6 5-7 1.3-1.3 2.3-2.8 3-4.5l3-1c-1-.3-1.6-.8-2-1.5Z"/><path style="opacity:.937" fill="#27221a" d="m150.5 189.5 10 7c2.8 4.1 5.5 8.3 8 12.5-.3 11.5-.3 23 0 34.5-1.1 7.8-2.1 15.8-3 24v4c-1.8 1.4-2.5 3.4-2 6v2c-1 4.7.3 8.4 4 11 .7 0 1 .3 1 1a4.7 4.7 0 0 0 4 3 3 3 0 0 0 2 2c0 .7-.3 1-1 1-5-3-9-7-12-12l1-16c2.5-8 3.5-16.3 3-25 1-3.6 1.3-7.2 1-11 .7-2 1-4.1 1-6.5a62 62 0 0 1-2-19.5c-2.1-3.1-4.3-6.1-6.5-9-1.5-2-3.3-3.3-5.5-4 0-.5-.4-.9-1-1l-2 2v-6Z"/><path style="opacity:1" fill="#86775b" d="M165.5 244.5c.5 8.7-.5 17-3 25 .2-2 0-4-.5-6a68.9 68.9 0 0 0-2 14 5 5 0 0 1-2.5 4c-.3-5.9 0-11.5 1-17 0 3.1.4 3.4 1.5 1a39 39 0 0 0 2-15c-.6 2.2-1.4 4.2-2.5 6 .4-3.8 1.4-7.5 3-11a3 3 0 0 1 3-1Z"/><path style="opacity:1" fill="#806f5b" d="M73.5 248.5c1-.2 1.7.2 2 1-2.2 3.3-3.4 7-3.5 11-1.5 2-3.3 3.3-5.5 4 .7-2 1.9-3.6 3.5-5-.1-3.4 1-6.3 3.5-8.5a30 30 0 0 0-13 6.5c-.5 0-.9-.4-1-1l3-4c1.1-1.3 2.5-2.5 4-3.5 2.4.5 4.7.4 7-.5Z"/><path style="opacity:1" fill="#55462a" d="M158.5 264.5c0-2.7.4-5.4 1-8 1.1-1.8 2-3.8 2.5-6a39 39 0 0 1-2 15c-1 2.4-1.6 2.1-1.5-1Z"/><path style="opacity:1" fill="#a68868" d="M66.5 264.5c-2.6 2.6-5.6 5-9 7a20 20 0 0 1-5-9c.8-.8 1.7-.5 2.5 1 2-1.5 4.1-2.7 6.5-3.5 1.4-1.5 1-2.3-1-2.5a30 30 0 0 1 13-6.5c-2.5 2.2-3.6 5-3.5 8.5-1.6 1.4-2.8 3-3.5 5Z"/><path style="opacity:.18" fill="#a89878" d="M141.5 236.5c-.2 4.3 0 8.7.5 13 1.3 4.2 2.8 8.2 4.5 12 .3 3.5 0 6.9-1 10a61 61 0 0 0-.5-11 30.7 30.7 0 0 1-3.5-24Z"/><path style="opacity:.067" fill="#726653" d="M168.5 243.5v5c.2 4.3 0 8.7-.5 13 0 2.6-.8 4.6-2.5 6 .9-8.2 1.9-16.2 3-24Z"/><path style="opacity:.282" fill="#eae2c6" d="M62.5 224.5v4l-1.5 14a69 69 0 0 0-12.5 5.5c-1.8 1.1-2.7 2.6-2.5 4.5a47.6 47.6 0 0 1 21.5-10c.7 0 1-.3 1-1 1 .8 1.2 1.8.5 3-1 .6-1.8 1.2-2.5 2l-4 1c-5.9.4-10.9 2.8-15 7l5 8a20 20 0 0 0 5 9 7 7 0 0 0 1 4c-1.6 0-3-.6-4-2-3.6-7.3-7.2-14.5-11-21.5 0-1.4.4-2.8 1-4 4.3-2.8 9-5 14-6.5.6-6 2-11.7 4-17Z"/><path style="opacity:.996" fill="#1b221c" d="M78.5 246.5c-1.2 3-2.2 6-3 9 .9.8 1.9 1.3 3 1.5-1.6.7-3 1.5-4.5 2.5 0 1.7-.2 3.2-.5 4.5 1.6.5 3.3.7 5 .5a50.7 50.7 0 0 1-20 11 7 7 0 0 1-1-4c3.4-2 6.4-4.4 9-7 2.2-.7 4-2 5.5-4 .1-4 1.3-7.7 3.5-11 .8-1.2 1.8-2.2 3-3Z"/><path style="opacity:1" fill="#463a25" d="M151.5 257.5v2l-2 23c.3-2.2 0-4.2-1-6a61 61 0 0 0-.5-11l-1.5 10.5a7 7 0 0 1-3 5.5l2-10c1-3.1 1.3-6.5 1-10l2-3c1.1 0 2.1-.4 3-1Z"/><path style="opacity:1" fill="#9b8b73" d="m162.5 269.5-1 16v6h-1v-8c-2.8.6-5.7 1.2-8.5 2a11 11 0 0 1-3.5-1c.2-1.7-.5-2.7-2-3 1.5-1.3 2.1-3 2-5 1 1.8 1.3 3.8 1 6 2.8 1.4 5.5 1 8-1a5 5 0 0 0 2.5-4c.2-4.8.9-9.4 2-14 .5 2 .7 4 .5 6Z"/><path style="opacity:.102" fill="#b8b297" d="M78.5 264.5h2a32.1 32.1 0 0 1-19 12c-1.2 0-2.2-.4-3-1a50.7 50.7 0 0 0 20-11Z"/><path style="opacity:.129" fill="#8a7857" d="M165.5 271.5c.5 2.6-.2 4.6-2 6-.5-2.6.2-4.6 2-6Z"/><path style="opacity:.282" fill="#645840" d="M163.5 279.5c1.9 3.3 3.2 7 4 11-3.7-2.6-5-6.3-4-11Z"/><path style="opacity:1" fill="#78694c" d="M157.5 252.5c-1.3 9.6-2.3 19.3-3 29h3a6.8 6.8 0 0 1-8 1l2-23v-2c2.4-1.2 4.4-2.9 6-5Z"/><path style="opacity:1" fill="#948569" d="M151.5 259.5c1.3 3.3 2 7 2 11l-1 11c-1-7.3-1.3-14.6-1-22Z"/><path style="opacity:1" fill="#c2c2c2" d="M146.5 281.5c1.5.3 2.2 1.3 2 3a9.6 9.6 0 0 0-1 6v1a6.8 6.8 0 0 1-2-5c0-1.9.3-3.5 1-5Z"/><path style="opacity:1" fill="#35474a" d="M160.5 291.5c-.8-2.1-1.3-4.5-1.5-7 .6 8-2.6 10.3-9.5 7l-2-1c-.3-2.2 0-4.2 1-6 1 .5 2.2.9 3.5 1 2.8-.8 5.7-1.4 8.5-2v8Z"/><path style="opacity:.988" fill="#75726c" d="M161.5 285.5c3 5 7 9 12 12v1a24.5 24.5 0 0 1-10.5-8c-.4.6-.9.9-1.5 1v-6Z"/><path style="opacity:.039" fill="#48392a" d="M143.5 281.5v12l-2 1c0-4.6.6-9 2-13Z"/><path style="opacity:.008" fill="#d5c1a5" d="M168.5 291.5c1.9.2 3.2 1.2 4 3a4.7 4.7 0 0 1-4-3Z"/><path style="opacity:.412" fill="#9c8f78" d="M143.5 293.5c.3 3.3-.4 6.3-2 9 0-1.1-.4-2.1-1-3 1.4-1.7 1.7-3.3 1-5l2-1Z"/><path style="opacity:.945" fill="#433b32" d="M174.5 296.5c4.5-.1 7.5 1.9 9 6-1 3.3-3 6-6 8 0-.7-.3-1-1-1 3.8-2 4.8-5 3-9l-6-2v-1c.7 0 1-.3 1-1Z"/><path style="opacity:.082" fill="#b29b7b" d="M172.5 294.5c3 1 6 1.8 9 2.5 2.8 2.5 3.5 5.3 2 8.5v-3c-1.5-4.1-4.5-6.1-9-6a3 3 0 0 1-2-2Z"/><path style="opacity:1" fill="#2f4447" d="M170.5 307.5a37.3 37.3 0 0 1-20.5-8c-.7-1.2-.6-2.2.5-3a11 11 0 0 1 13 3.5c4.6 1 9 2.5 13 4.5v3h-6Z"/><path style="opacity:1" fill="#222220" d="M148.5 276.5c.1 2-.5 3.7-2 5-.7 1.5-1 3.1-1 5 0 2.1.7 3.8 2 5v8l-2-1a20.7 20.7 0 0 0-.5 11c.4.6.9.9 1.5 1 .7-.4 1.2-1 1.5-2 2 .6 3.8 1.3 5.5 2l-2 1c-1 1.3-2.3 2-4 2-2.3-.6-4-2-5-4 .1-3.4-.5-3.8-2-1 0-2 .3-4 1-6 1.6-2.7 2.3-5.7 2-9v-12a7 7 0 0 0 3-5.5l1.5-10.5c.5 3.7.7 7.3.5 11Z"/><path style="opacity:1" fill="#354345" d="M147.5 300.5c3.8 4.6 8.5 7.6 14 9a25 25 0 0 0-8 1l-5.5-2c-.3 1-.8 1.6-1.5 2 .7-3.3 1-6.6 1-10Z"/><path style="opacity:1" fill="#0e1d1f" d="m147.5 290.5 2 1a4 4 0 0 0 2 3.5c-.6.4-.9.9-1 1.5-1 .8-1.2 1.8-.5 3 6 4.7 12.8 7.4 20.5 8v3c-3 .1-6-.2-9-1a26.7 26.7 0 0 1-14-9v-10Z"/><path style="opacity:1" fill="#192a2d" d="M160.5 291.5h1c.6-.1 1.1-.4 1.5-1 2.8 3.7 6.3 6.3 10.5 8l6 2c1.8 4 .8 7-3 9l-6 1v-3h6v-3c-4-2-8.4-3.5-13-4.5a11 11 0 0 0-13-3.5c.1-.6.4-1.1 1-1.5a4 4 0 0 1-2-3.5c7 3.3 10 1 9.5-7 .2 2.5.7 4.9 1.5 7Z"/><path style="opacity:1" fill="#83807b" d="M147.5 299.5v1c0 3.4-.3 6.7-1 10-.6-.1-1.1-.4-1.5-1-.8-3.7-.7-7.4.5-11l2 1Z"/><path style="opacity:1" fill="#b9bab9" d="M161.5 309.5c3 .8 6 1.1 9 1l6-1c.7 0 1 .3 1 1a15.1 15.1 0 0 1-8.5 2c-5.2-1-10.4-1-15.5 0-1 .2-1.7-.2-2-1l2-1a25 25 0 0 1 8-1Z"/><path style="opacity:.004" fill="#714a37" d="M183.5 307.5c-.2 2.7-1.5 4.4-4 5 1.1-1.9 2.4-3.6 4-5Z"/><path style="opacity:.984" fill="#cbbda7" d="M142.5 309.5c1 2 2.7 3.4 5 4 2.1 1 4.4 1.3 7 1v1c-4.8 1.7-9 .7-12.5-3-.7-1.2-.6-2.2.5-3Z"/><path style="opacity:.11" fill="#d8d0b2" d="M140.5 299.5c.6.9 1 1.9 1 3-.7 2-1 4-1 6 .6 3.1.6 6.1 0 9a41 41 0 0 1 0-18Z"/><path style="opacity:1" fill="#585047" d="M151.5 311.5c.3.8 1 1.2 2 1 .4.7 1 1.2 2 1.5-.2.4-.6.6-1 .5-2.6.3-4.9 0-7-1 1.7 0 3-.7 4-2Z"/><path style="opacity:.91" fill="#2a2019" d="M183.5 302.5v5a21.6 21.6 0 0 0-4 5c-.5 1.4-1.5 2-3 2-4.7-.1-9.4.2-14 1h-8v-1c.4 0 .8-.1 1-.5-1-.3-1.6-.8-2-1.5 5.1-1 10.3-1 15.5 0 3.2.1 6-.5 8.5-2 3-2 5-4.7 6-8Z"/><path style="opacity:.949" fill="#4b4236" d="M142.5 309.5c-1 .8-1.2 1.8-.5 3 3.5 3.7 7.7 4.7 12.5 3h8l-9 2c-3.6.6-7.2.6-11 0h-2c.6-2.9.6-5.9 0-9 1.5-2.8 2.1-2.4 2 1Z"/><path style="opacity:.008" fill="#b2a080" d="M176.5 314.5c-6 2-12.4 3-19 3h-4l9-2c4.6-.8 9.3-1.1 14-1Z"/><path style="opacity:.149" fill="#dacab0" d="M142.5 317.5c3.8.6 7.4.6 11 0h4v2h-14l-1-2Z"/></svg>