<svg xmlns="http://www.w3.org/2000/svg" width="200" height="282" fill="none" viewBox="0 0 200 282">
  <path fill="#C1AA81" fill-rule="evenodd" d="M35.01 0 105 99.5 72.266 0H35.01Zm-20.5.534L105 105 0 24.26V19C0 10.054 6.183 2.551 14.51.534ZM0 48.582 98.5 103 0 76.215V48.582Zm0 64.963V91.401L92.5 108.5 0 113.545Zm0 38.637v-24.528L90 113.5 0 152.182Zm0 52.296V169.87l98.5-56.37L0 204.478ZM18.97 282C8.49 281.984 0 273.483 0 263v-37.073L107.5 111 18.97 282Zm96.552 0H71.667L102 132.5 115.522 282Zm61.005 0h-44.223L105 136l71.527 146ZM200 195.809V263c0 2.7-.563 5.268-1.578 7.593L107.5 124.5l92.5 71.309Zm0-57.134v33.098L110.5 120.5l89.5 18.175Zm0-46.086v28.439l-89.5-7.528 3.241-.757L200 24.617v46.247l-84.722 41.519L200 92.589ZM139.954 0h41.003L113 108.5 139.954 0Zm-48.48 0h33.69L110.5 103 91.475 0Z" clip-rule="evenodd"/>
</svg>
